<?xml version="1.0" encoding="UTF-8"?><svg id="Camada_1" xmlns="http://www.w3.org/2000/svg" viewBox="0 0 188.26 164.32"><defs><style>.cls-1{fill:#f6a01a;}.cls-2{fill:#fff;}.cls-3{fill:#84cff0;}.cls-4{fill:#806037;}.cls-5{fill:#953231;}.cls-6{fill:#968534;}.cls-7{fill:#e52621;}.cls-8{fill:#b05299;}.cls-9{fill:#708ac5;}.cls-10{fill:#70352e;}.cls-11{fill:#57a45d;}.cls-12{fill:#633a8e;}</style></defs><rect class="cls-7" x="43.75" y="38.48" width="21.36" height="29.23"/><rect class="cls-1" x="78.8" y="12.67" width="35.67" height="51.82"/><rect class="cls-9" x="106.74" y="35.57" width="30.16" height="32.14"/><rect class="cls-4" x="106.74" y="35.57" width="7.73" height="28.92"/><rect class="cls-8" x="127.8" y="24.54" width="23.73" height="28.09"/><rect class="cls-12" x="127.8" y="35.57" width="9.1" height="17.06"/><rect class="cls-11" x="32.8" y="52.16" width="16.91" height="20.19"/><rect class="cls-10" x="43.75" y="51.34" width="5.95" height="16.37"/><rect class="cls-3" x="56.46" y="22.35" width="33.46" height="52.54"/><rect class="cls-5" x="56.46" y="38.48" width="8.66" height="29.23"/><rect class="cls-6" x="78.8" y="22.35" width="11.12" height="42.15"/><path class="cls-2" d="M57.63,90.03h6.98l8.88,21.22h-7.65l-1.11-2.83h-7.38l-1.08,2.83h-7.53l8.88-21.22ZM62.99,103.43l-1.93-5.12-1.93,5.12h3.85Z"/><path class="cls-2" d="M84.91,90.18h9.48c5.6,0,9.42,2.5,9.42,7.5v.06c0,5.09-3.88,7.8-9.57,7.8h-2.29v5.72h-7.04v-21.07ZM93.85,100.51c1.81,0,3.01-.81,3.01-2.32v-.06c0-1.54-1.11-2.32-2.98-2.32h-1.93v4.7h1.9Z"/><path class="cls-2" d="M115.85,90.18h9.48c5.6,0,9.42,2.5,9.42,7.5v.06c0,5.09-3.88,7.8-9.57,7.8h-2.29v5.72h-7.04v-21.07ZM124.8,100.51c1.81,0,3.01-.81,3.01-2.32v-.06c0-1.54-1.11-2.32-2.98-2.32h-1.93v4.7h1.9Z"/><path class="cls-2" d="M26.76,131.07v-.05c0-4.8,3.59-8.77,8.58-8.77,3.08,0,4.92,1.09,6.62,2.69l-1.31,1.41c-1.43-1.36-3.03-2.33-5.33-2.33-3.76,0-6.57,3.05-6.57,6.96v.05c0,3.93,2.84,7,6.57,7,2.33,0,3.85-.9,5.48-2.45l1.26,1.24c-1.77,1.79-3.71,2.98-6.79,2.98-4.9,0-8.51-3.85-8.51-8.72Z"/><path class="cls-2" d="M44.16,131.07v-.05c0-4.8,3.59-8.77,8.58-8.77,3.08,0,4.92,1.09,6.62,2.69l-1.31,1.41c-1.43-1.36-3.03-2.33-5.33-2.33-3.76,0-6.57,3.05-6.57,6.96v.05c0,3.93,2.84,7,6.57,7,2.33,0,3.85-.9,5.48-2.45l1.26,1.24c-1.77,1.79-3.71,2.98-6.79,2.98-4.9,0-8.51-3.85-8.51-8.72Z"/><path class="cls-2" d="M62.8,122.54h1.94l6.18,9.26,6.18-9.26h1.94v16.96h-1.91v-13.74l-6.18,9.09h-.1l-6.18-9.06v13.72h-1.87v-16.96Z"/><path class="cls-2" d="M95.59,124.31h-5.7v-1.77h13.33v1.77h-5.7v15.2h-1.94v-15.2Z"/><path class="cls-2" d="M102.5,136.74l1.38-1.19c1.04,1.58,2.11,2.42,3.88,2.42,1.91,0,3.32-1.38,3.32-4.07v-11.37h1.94v11.34c0,1.99-.58,3.49-1.55,4.46-.95.92-2.23,1.41-3.73,1.41-2.54,0-4.17-1.26-5.23-3.01Z"/><path class="cls-2" d="M125.89,120.16h1.72l-11.25,22.44h-1.72l11.25-22.44Z"/><path class="cls-2" d="M133.23,122.42h1.79l7.73,17.09h-2.06l-1.99-4.48h-9.23l-2.01,4.48h-1.96l7.73-17.09ZM137.95,133.27l-3.85-8.63-3.88,8.63h7.73Z"/><path class="cls-2" d="M146.1,122.54h1.91v15.2h9.55v1.77h-11.46v-16.96Z"/></svg>