<?xml version="1.0" encoding="UTF-8"?><svg id="Camada_1" xmlns="http://www.w3.org/2000/svg" viewBox="0 0 187.46 129.99"><defs><style>.cls-1{fill:#fff;fill-rule:evenodd;}</style></defs><path class="cls-1" d="M121.91,47.48c1.73-5.88,7.8-7.44,7.78-2.28-.01,3.11-3.3,8.4-8.55,10.07-.26-2.32-.07-4.95.77-7.79M107.66,49.77c-.5-.67-1-1.41-1.49-2.2-3.74-6.16-10.36-21.52-5.05-28.25,2.95-3.74,9.74,9.68,6.54,30.45M146.68,47.65c-4.83-1.9-3.71-8.86,2.35-4.28,1.82,1.37,3.37,2.98,4.64,4.68-2.63.53-5.49.18-7-.4M162.82,33l-5.47,1.59c2.82,5.49,2.55,8.91.9,10.98-1.43-1.83-3.16-3.46-5.19-4.72-13.19-8.18-17.13,7.02-6.97,9.59,3.87.97,6.99,1.09,9.48.6,3.16,6.05,2.7,12.35-2.74,13.48-7.95,1.64-9.93-5.64-10.5-14.72l-5.23.95c1.24,15.06-7.79,15.72-10.77,13.92-2.06-1.24-3.95-3.81-4.8-7.29,3.71-.98,7.83-3.43,10.99-8.45,7.09-11.25-9.14-16.75-13.81-2.7-.93,2.79-1.42,6.35-1.23,9.53-2.24.02-4.11-.65-6.43-2.47.22-.59.44-1.18.65-1.8,2.3-6.82,5.79-24.72.9-33.68-6.12-11.18-17.08-8.09-16.19,8.67.37,7.15,3.44,16.1,8.19,23.11.77,1.14,1.61,2.18,2.52,3.1-3.56,14.23-17.59,13.33-20.54,7.87-3.09-5.71-.33-12.14,1.41-12.14,2.3,0,1.49,4.21,5.27,5.52,7.76,2.72,11.65-9.65.51-11.19-12.12-1.67-13.37,10.14-12.1,16.78.77,3.96.92,7.15-2.69,5.48-3.6-1.67-2.47-18.55-2.47-18.55l-2.52-.44c-.52,5.05-1.13,12.12-1.14,17.24-.02,5.12-4.63,5.18-6.28,2.87-1.65-2.32,1.39-24.8,1.39-24.8-.02,0-4.08.15-11.28-.45l-.11,1.7c1.15.05,2.22.09,3.19.11-.29,3.17-1.56,17.27-.97,20.84,1.04,6.38,5.55,10.57,12.88,6.93,2.09-1.03,3.69-4.18,3.7-7.05,1.33,2.54,2.46,3.61,4.91,3.61,2.45,0,4.77-1.87,4.22-4.88,1.58,4.78,17.47,11.09,25.7-6.85,2.45,1.64,4.66,2.5,7.48,2.49.53,3.82,2.46,7.43,4.63,9.63,4.05,4.09,13.4,5.57,17.71-2.67,2.01,4.19,5.61,7.58,12.33,7.6,11.13.03,13.38-13.43,8.02-23.49,2.71-2.27,3.77-5.78,3.78-9.21v-.15c-.01-2.34-.52-4.64-1.32-6.46M73.57,38.66c.38-.81.92-1.44,2.02-.72.51.35.86,1.38,2.59,1.94,5.38,1.79,8.23-6.6,1.43-7.83-8.69-1.56-10.29,11.28-10.29,11.28l3.47.41s.03-3.48.77-5.08M138.7,91.29c-3.41-.6-3.68-5.32.82-4.21,1.19.29,2.45,1.67,3.48,3.56-1.6.72-3.22.85-4.29.66M152.61,74.15l-5.06.15c1.62,6.89.61,11.15-1.29,13.7-11.57-13.43-22.9,5.09-7.96,6.27,2.36.19,4.34-.06,6-.62,1.71,5.22,1.36,11.66-4.97,12.1-9.21.63-8.97-10.59-7.88-13.44l-2.88-.71c-3.78,12.29,2.4,20.49,11.29,19.93,8.74-.55,13.44-12.08,8.61-20.47,5.62-5.72,4.13-16.9,4.13-16.9M98.51,86.54c2.79-7.16,10.24-6.57,8-.29-1.28,3.62-4.81,5.9-9.27,7.27-.08-2.15.3-4.49,1.27-6.99M56.26,98.16c-3.81.6-6.84-.34,2.25-1.89.73-.12,1.78-.12,3.05-.04-1.79.98-3.56,1.66-5.3,1.93M130.52,78.73c3.04,6.76,11.27,1.71,6.68-4.13-4.44-5.66-13.27-1.78-14.27,8.05-.47-2.85-1.12-5.9-1.99-9.19-.02,0-3.39.48-9.81,1.81l.33,1.46c1.34-.34,2.54-.61,3.62-.84,8.64,29.89-7.81,32.25-13.07,27.64-2.13-1.86-3.76-4.39-4.43-7.44,5.63-1.59,10.45-4.34,12.35-8.87,3.27-7.76-8.37-13.9-14.91-2.22-1.78,3.19-2.61,6.45-2.66,9.63-4.61.73-9.64.79-14.01.52-1.59-.11-3.07-.25-4.48-.41,8.71-8.09,15.76-18.2,23.28-19.73l1.39-4.3c-12.62.29-16.68,2.82-30.81,4.85-17.25,2.48-11.69-20.52-11.87-29.34-.47-22.26-21.14-9.76-21.44,4.05-.37-6.53-.37-11.4-.37-11.4-.02,0-7.45,1.06-14.67,1.43l.12,1.71c2.34-.22,4.64-.48,6.68-.73,1.7,7.46,4.01,26.72,4.24,28.7-1.32.19-2.83.45-4.51.8l.3,1.48c6.42-1.52,10.12-1.56,10.56-1.53h0s.03,0,.03,0c-.95-4.6-1.57-9.82-1.98-14.68-.59-9.55,9.34-18.46,10.74-7.99,1.93,14.35-.48,33.98,22.03,30.88,1.93-.27,11.28-2.07,19.2-3.16-7.52,5.26-14.54,12.93-21.18,17.82-2.98-.37-5.75-.54-8.69-.08-14.76,2.31-13.94,13.9-.16,11.17,5.31-1.05,9.97-3.89,14.23-7.43,2.27.26,4.62.5,6.91.65,4.09.25,9.42.15,14.58-.7.43,3.69,1.86,7.18,3.98,10.23,8.08,11.54,28.78,10.48,27.28-17.43-.35-10.22,4.93-15.36,6.76-11.28"/></svg>