<?xml version="1.0" encoding="UTF-8"?><svg id="Camada_1" xmlns="http://www.w3.org/2000/svg" viewBox="0 0 257.09 124.57"><defs><style>.cls-1,.cls-2{fill:#fff;}.cls-2{fill-rule:evenodd;}</style></defs><path class="cls-1" d="M167.76,50.61c.34.09.67.15.97.19.31.04.61.06.89.06,1.21,0,2.14-.28,2.82-.83.67-.55,1.01-1.3,1.01-2.27,0-1.16-.34-2.08-1.01-2.78-.67-.7-1.58-1.05-2.71-1.05-.55,0-.97.06-1.28.18-.3.12-.48.3-.53.54-.05.22-.09.8-.11,1.74-.03.95-.04,2.36-.05,4.22M172.09,51.11c1.14,1.93,2.16,3.45,3.06,4.57.9,1.13,1.74,1.93,2.52,2.41.39.24.76.41,1.12.52.36.11.54.2.54.27,0,.05-.02.09-.05.12-.04.03-.09.05-.15.05h-.58c-1.3,0-2.62-.63-3.96-1.88-1.35-1.25-2.78-3.18-4.29-5.8h-.35c-.33,0-.67-.01-1.02-.04-.35-.03-.73-.07-1.14-.13,0,.17,0,.43-.01.76,0,.33-.01.57-.01.72v1.21c0,1.65.04,2.7.11,3.16.07.47.21.75.41.84.24.11.5.19.78.26.29.06.43.15.43.28,0,.05,0,.09-.02.12-.02.03-.04.05-.07.05,0,0-.29-.04-.85-.12-.56-.08-1.1-.12-1.64-.12-.6,0-1.22.06-1.86.18-.13.02-.21.04-.24.04-.04,0-.07-.01-.09-.04-.02-.02-.03-.06-.03-.13,0-.1.1-.18.3-.24.16-.04.3-.08.41-.13.31-.11.52-.34.65-.69.12-.35.18-1.12.18-2.31v-4.75c0-2.42-.04-3.98-.11-4.69-.07-.7-.21-1.13-.4-1.26-.16-.1-.4-.17-.73-.21-.33-.04-.5-.11-.5-.23,0-.06.02-.12.06-.15.04-.04.09-.06.17-.06,0,0,.18.02.52.05.34.03.68.05,1.01.05.4,0,1.04-.05,1.91-.15.87-.1,1.54-.15,2-.15,1.49,0,2.69.37,3.61,1.13.91.75,1.37,1.74,1.37,2.97,0,.82-.27,1.54-.8,2.16-.54.63-1.28,1.08-2.24,1.37ZM161.44,43.7c-.13.48-.25,1.06-.34,1.73-.09.67-.2,1-.34,1-.07,0-.12-.02-.16-.05-.04-.04-.07-.07-.07-.11,0-.02.02-.13.06-.35.04-.22.06-.43.06-.63,0-.4-.28-.67-.84-.83-.56-.16-1.54-.24-2.93-.24-.47,0-.95.02-1.44.05-.49.04-1,.09-1.51.17-.06.85-.1,1.71-.13,2.58-.03.87-.04,1.77-.04,2.68v.41c0,.23.06.37.17.43.12.05.42.08.9.08h1.09c1.28,0,2.16-.03,2.64-.1.49-.06.82-.18.99-.34.17-.17.3-.41.39-.71.08-.31.16-.46.24-.46.05,0,.08,0,.1.03.02.02.03.07.03.15s-.02.33-.06.74c-.04.41-.07.78-.07,1.1,0,.39.02.79.07,1.21.04.42.06.65.06.69,0,.12-.01.2-.04.24-.03.04-.07.06-.14.06-.08,0-.14-.13-.18-.38-.04-.25-.08-.47-.13-.64-.13-.44-.38-.72-.74-.85-.36-.13-1.21-.19-2.55-.19h-1.31c-.67,0-1.08.03-1.23.09-.15.05-.23.23-.23.52v1.44c0,1.06,0,1.9.03,2.55.02.64.05,1.27.09,1.88.55.09,1.06.15,1.54.19.48.04.93.06,1.36.06,1.37,0,2.42-.14,3.16-.43.73-.29,1.3-.77,1.71-1.45.1-.16.2-.36.29-.59.09-.24.17-.36.24-.36.06,0,.09.01.12.04.02.02.04.06.04.12,0,.27-.09.71-.27,1.34-.18.62-.42,1.26-.72,1.92-.96-.03-1.87-.05-2.73-.07-.86-.02-1.63-.02-2.32-.02-1.94,0-3.7.06-5.28.18-.17,0-.27.01-.3.01-.09,0-.15-.01-.19-.04-.04-.02-.06-.06-.06-.11,0-.11.19-.2.59-.28.39-.09.64-.19.73-.32.14-.2.24-1.02.31-2.47.07-1.45.11-3.48.11-6.11v-2.27c0-1.01-.05-1.69-.14-2.03-.1-.35-.27-.57-.52-.67-.14-.06-.33-.13-.57-.18-.25-.06-.37-.13-.37-.24,0-.05.02-.08.05-.11.04-.02.09-.04.16-.04.02,0,.07,0,.18.01.67.05,1.38.08,2.1.08.1,0,.37,0,.81-.01,2.49-.05,5-.08,7.53-.08ZM134.88,44c.3,0,.96-.06,1.98-.18,1.02-.12,1.89-.18,2.62-.18,1.11,0,2.07.11,2.87.33.8.22,1.55.57,2.25,1.06,1.02.7,1.83,1.59,2.42,2.66.59,1.07.89,2.16.89,3.27,0,2.22-.8,4.04-2.39,5.45-1.59,1.42-3.67,2.12-6.23,2.12-.43,0-1.06-.02-1.86-.07-.8-.04-1.38-.07-1.75-.07-.51,0-1.04.03-1.62.08-.57.06-.89.09-.94.09-.09,0-.15-.02-.2-.05-.04-.03-.06-.08-.06-.14,0-.1.11-.17.32-.19.21-.03.37-.06.47-.1.3-.11.5-.3.61-.58.11-.28.17-.93.17-1.93v-5.4c0-2.29-.04-3.76-.12-4.43-.08-.67-.22-1.06-.42-1.18-.17-.11-.4-.19-.68-.24-.28-.04-.42-.11-.42-.2s.04-.14.11-.18c.07-.04.23-.05.46-.05.13,0,.36.02.7.05.34.04.62.05.83.05ZM139.07,44.1c-.75,0-1.38.06-1.91.17-.52.12-.84.26-.94.43-.08.13-.14.8-.18,2.01-.04,1.21-.06,2.87-.06,4.96,0,1.71.02,3.02.05,3.94.04.92.09,1.44.16,1.57.12.23.51.43,1.18.61.67.17,1.44.26,2.3.26,1.93,0,3.48-.63,4.65-1.89,1.16-1.26,1.74-2.93,1.74-5.02s-.63-3.82-1.91-5.11c-1.27-1.29-2.96-1.93-5.09-1.93ZM114.68,51.01c0-2.1.76-3.88,2.29-5.36,1.53-1.48,3.38-2.22,5.55-2.22s3.97.72,5.43,2.16c1.45,1.44,2.18,3.24,2.18,5.39s-.75,4.02-2.25,5.5c-1.5,1.49-3.36,2.23-5.59,2.23s-3.92-.76-5.39-2.26c-1.47-1.51-2.21-3.32-2.21-5.45ZM122.01,44.21c-1.73,0-3.13.54-4.2,1.62-1.07,1.08-1.6,2.5-1.6,4.25,0,.86.15,1.74.45,2.62.3.89.71,1.68,1.23,2.38.65.89,1.44,1.58,2.36,2.06.92.48,1.89.73,2.9.73,1.62,0,2.94-.55,3.93-1.65.99-1.1,1.49-2.55,1.49-4.34,0-2.07-.65-3.87-1.95-5.39-1.3-1.52-2.84-2.28-4.61-2.28ZM106.08,43.54c1.71,0,3.14.47,4.28,1.4,1.14.93,1.71,2.07,1.71,3.42s-.58,2.41-1.74,3.28c-1.16.87-2.63,1.3-4.42,1.3-.33,0-.67-.02-1-.07-.09-.02-.14-.02-.15-.02s-.04,0-.06-.01c-.02,0-.04-.01-.06-.01-.09,0-.15.02-.17.08-.02.05-.04.18-.04.39v.24c0,1.73.03,2.87.1,3.42.06.55.19.87.39.95.28.13.63.2,1.05.22.42.02.63.09.63.2,0,.1,0,.15-.02.17-.02.02-.06.02-.12.02-.14,0-.53-.02-1.15-.07-.62-.04-1.18-.07-1.66-.07-.28,0-.64.02-1.09.07-.46.05-.76.07-.93.07-.05,0-.08-.01-.11-.04-.02-.03-.04-.07-.04-.13,0-.07.09-.13.27-.16.18-.03.36-.09.54-.16.25-.11.43-.28.52-.54.09-.26.14-.8.14-1.64v-1.28c0-2.25-.02-4.29-.07-6.14-.04-1.85-.09-2.88-.13-3.09-.03-.42-.15-.74-.36-.95-.2-.22-.49-.33-.85-.33-.19,0-.31-.01-.35-.04-.04-.02-.07-.07-.07-.14,0-.06.02-.1.05-.14.04-.03.09-.05.15-.05h.04c.06.02.12.02.18.02.07,0,.17,0,.31.01.14,0,.24.01.32.01.86,0,1.72-.03,2.59-.09.87-.05,1.32-.08,1.34-.08ZM104.4,52.18c.37.08.67.13.92.17.25.03.48.05.71.05,1.33,0,2.38-.35,3.15-1.06.77-.7,1.15-1.67,1.15-2.89,0-1.33-.39-2.4-1.15-3.21-.77-.81-1.79-1.22-3.06-1.22-.24,0-.5.02-.77.05-.28.03-.58.08-.93.14-.02.85-.03,1.65-.04,2.42,0,.76-.01,1.49-.01,2.16,0,.82,0,1.48,0,1.97,0,.49.01.96.02,1.41Z"/><path class="cls-1" d="M215.74,69.2c0-2.14.78-3.96,2.34-5.46,1.56-1.51,3.45-2.26,5.65-2.26s4.05.73,5.53,2.2c1.48,1.47,2.22,3.3,2.22,5.5s-.77,4.09-2.29,5.61c-1.53,1.51-3.43,2.27-5.7,2.27s-3.99-.77-5.49-2.31c-1.5-1.54-2.26-3.39-2.26-5.55M223.21,62.28c-1.76,0-3.19.55-4.27,1.66-1.09,1.1-1.63,2.55-1.63,4.33,0,.88.15,1.77.46,2.67.3.9.72,1.71,1.25,2.43.66.91,1.47,1.61,2.4,2.1.94.49,1.92.74,2.96.74,1.66,0,2.99-.56,4-1.68,1.01-1.13,1.51-2.6,1.51-4.42,0-2.11-.66-3.94-1.99-5.5-1.33-1.55-2.89-2.33-4.69-2.33ZM213.01,61.68c.14,0,.23,0,.26.03.03.02.05.06.05.12,0,.1-.22.19-.65.27-.43.09-.74.21-.94.37-.21.19-.36.83-.44,1.93-.09,1.1-.13,3.35-.13,6.74v2.32c0,1.15.06,1.91.19,2.27.13.36.37.57.72.65.19.04.43.07.73.08.31.02.47.08.47.19,0,.07-.02.12-.07.15-.05.03-.15.04-.3.04h-.17c-.18,0-.6-.02-1.26-.06-.66-.04-1.24-.06-1.72-.06-.36,0-.76.02-1.21.05-.46.03-.73.05-.82.05-.03,0-.09,0-.18-.01-.09,0-.17-.01-.21-.01-.1,0-.16-.01-.19-.03-.03-.03-.04-.06-.04-.11,0-.08.02-.14.08-.17.05-.04.14-.05.25-.05.53,0,.94-.08,1.25-.23.3-.15.51-.4.64-.74.1-.26.18-.79.22-1.61.04-.82.06-2.35.06-4.6,0-2.73-.06-4.51-.17-5.35-.11-.83-.31-1.32-.6-1.45-.27-.13-.6-.21-1-.24-.39-.03-.59-.1-.59-.22,0-.07.02-.12.06-.15.04-.03.11-.05.21-.05h.1c.23,0,.6.01,1.1.04.5.02.89.04,1.16.04.53,0,1.15-.03,1.86-.1.7-.06,1.13-.1,1.3-.1ZM194.32,68.79c.35.09.68.16.99.19.31.04.62.06.91.06,1.23,0,2.18-.28,2.87-.84.69-.56,1.03-1.33,1.03-2.31,0-1.18-.34-2.12-1.03-2.83-.69-.71-1.61-1.07-2.76-1.07-.56,0-.99.06-1.3.18-.31.12-.49.3-.54.55-.05.22-.09.81-.12,1.78-.03.96-.05,2.4-.05,4.3ZM198.73,69.31c1.16,1.96,2.21,3.52,3.12,4.66.92,1.15,1.77,1.96,2.57,2.46.4.24.78.42,1.15.53.37.11.55.2.55.27,0,.05-.02.09-.05.12-.04.03-.09.05-.15.05h-.59c-1.32,0-2.66-.64-4.04-1.92-1.37-1.28-2.83-3.24-4.37-5.91h-.35c-.34,0-.69-.01-1.04-.04-.36-.03-.74-.07-1.16-.13,0,.18,0,.43-.01.78,0,.34-.01.58-.01.74v1.24c0,1.68.04,2.75.11,3.22.07.48.21.76.41.86.24.11.51.2.8.26.29.06.44.16.44.29,0,.05,0,.09-.03.12-.02.03-.04.05-.07.05,0,0-.3-.04-.87-.12-.57-.08-1.13-.12-1.67-.12-.61,0-1.25.06-1.89.18-.13.02-.21.04-.24.04-.04,0-.07-.01-.09-.04-.02-.02-.03-.07-.03-.13,0-.1.1-.19.3-.24.16-.04.3-.08.41-.13.31-.11.53-.35.66-.7.12-.36.19-1.14.19-2.35v-4.84c0-2.46-.04-4.06-.12-4.78-.07-.72-.21-1.15-.41-1.28-.16-.1-.41-.17-.74-.21-.34-.04-.5-.12-.5-.24,0-.07.02-.12.06-.16.04-.04.1-.06.17-.06,0,0,.19.02.53.05.35.03.69.05,1.03.05.41,0,1.06-.05,1.95-.16.89-.1,1.57-.16,2.04-.16,1.52,0,2.74.38,3.67,1.15.93.76,1.39,1.77,1.39,3.02,0,.83-.27,1.56-.82,2.21-.55.64-1.31,1.1-2.28,1.39ZM185.06,57.29l-3.31,2.85h-.6l2.93-3.72c.18-.22.33-.37.46-.46.13-.09.26-.13.4-.13.19,0,.36.06.48.17.13.12.19.26.19.44,0,.12-.04.24-.12.37-.08.12-.23.29-.45.48ZM182.31,65.02s-.03-.06-.05-.1c-.05-.1-.09-.16-.13-.16s-.07.01-.11.04c-.03.03-.06.07-.09.13l-2.13,5.56c-.02.06-.05.11-.06.15-.01.05-.02.07-.02.09,0,.08,0,.13.02.14.02.02.09.03.22.04h4.54s.08-.02.1-.04c.02-.02.02-.06.02-.12,0-.05,0-.1-.02-.13-.01-.04-.03-.09-.05-.14l-2.25-5.48ZM186.29,75.1l-1.24-3.37c-.03-.09-.08-.15-.15-.2-.07-.05-.18-.07-.35-.07h-4.74c-.19,0-.32.03-.38.07-.06.05-.12.14-.16.26l-1.07,2.93c-.05.14-.09.29-.12.42-.03.13-.04.25-.04.36,0,.43.3.73.91.9.61.17.91.29.91.36,0,.04-.02.07-.07.1-.05.02-.11.04-.19.04-.05,0-.12,0-.22-.01-.09,0-.16-.01-.2-.01-.06,0-.29-.02-.71-.06-.42-.04-.8-.06-1.16-.06-.3,0-.63.02-1,.05-.37.03-.58.05-.64.05-.03,0-.06-.01-.08-.04-.02-.02-.04-.05-.04-.08,0-.07.09-.14.27-.21.18-.07.33-.15.47-.24.48-.31,1.4-2.18,2.76-5.6l.31-.8c.7-1.76,1.38-3.58,2.06-5.45.68-1.87,1.06-2.81,1.13-2.81.13,0,.24.19.34.57.08.31.16.58.23.79.5,1.37,1.08,2.89,1.73,4.55.65,1.66,1.53,3.82,2.64,6.48.35.83.63,1.39.84,1.67.21.29.47.49.77.61.1.04.22.07.35.11.14.03.22.08.22.14,0,.05-.01.09-.04.11-.03.02-.08.03-.15.03-.02,0-.1,0-.22,0-.52-.04-1.03-.06-1.53-.06-.39,0-.82.03-1.29.08-.47.06-.74.09-.82.09h-.17c-.08,0-.14,0-.17-.02-.03-.02-.05-.05-.06-.09,0-.07.19-.17.58-.3.38-.12.57-.36.57-.7,0-.06,0-.14-.03-.24-.02-.09-.05-.21-.1-.34ZM174.46,61.68c.14,0,.23,0,.26.03.03.02.05.06.05.12,0,.1-.22.19-.65.27-.43.09-.74.21-.94.37-.21.19-.36.83-.44,1.93-.09,1.1-.13,3.35-.13,6.74v2.32c0,1.15.06,1.91.19,2.27.13.36.37.57.72.65.19.04.43.07.73.08.31.02.47.08.47.19,0,.07-.02.12-.07.15-.05.03-.15.04-.3.04h-.17c-.18,0-.6-.02-1.26-.06-.66-.04-1.24-.06-1.72-.06-.36,0-.76.02-1.21.05-.46.03-.73.05-.82.05-.02,0-.09,0-.18-.01-.09,0-.17-.01-.21-.01-.1,0-.16-.01-.19-.03-.03-.03-.04-.06-.04-.11,0-.08.02-.14.08-.17.05-.04.14-.05.25-.05.53,0,.94-.08,1.25-.23.3-.15.51-.4.64-.74.1-.26.18-.79.22-1.61.04-.82.06-2.35.06-4.6,0-2.73-.06-4.51-.17-5.35-.11-.83-.31-1.32-.6-1.45-.27-.13-.6-.21-1-.24-.39-.03-.59-.1-.59-.22,0-.07.02-.12.06-.15.04-.03.11-.05.21-.05h.1c.23,0,.6.01,1.1.04.5.02.89.04,1.16.04.53,0,1.15-.03,1.86-.1.7-.06,1.13-.1,1.29-.1ZM165.96,76.06c-.18.04-.44.11-.79.21-1.53.42-2.73.63-3.58.63-2.41,0-4.38-.72-5.91-2.16-1.53-1.44-2.3-3.29-2.3-5.54s.77-4.02,2.32-5.46c1.54-1.44,3.49-2.16,5.86-2.16.87,0,1.78.11,2.71.34.94.22,1.45.33,1.55.33.11,0,.24-.02.37-.05.13-.03.21-.05.22-.05.05,0,.09.01.11.04.02.02.03.06.03.11,0,.02-.01.08-.03.17-.18.64-.31,1.34-.39,2.1-.02.26-.05.43-.09.5-.03.06-.08.1-.16.1-.06,0-.11-.02-.13-.05-.03-.04-.04-.1-.04-.2v-.38c0-.37-.06-.65-.18-.83-.12-.18-.33-.36-.64-.55-.53-.31-1.14-.56-1.82-.74-.68-.18-1.32-.27-1.93-.27-1.72,0-3.14.64-4.24,1.92-1.1,1.28-1.66,2.93-1.66,4.95,0,2.13.6,3.89,1.82,5.28,1.21,1.39,2.74,2.09,4.57,2.09,1.03,0,1.89-.18,2.57-.55.68-.37,1.24-.94,1.67-1.73.09-.17.17-.35.26-.55.1-.22.2-.33.31-.33.05,0,.09,0,.12.02.03.01.05.03.05.06,0,.07-.09.41-.27,1.01-.18.6-.31,1.18-.39,1.76ZM150.62,61.68c.14,0,.23,0,.26.03.03.02.05.06.05.12,0,.1-.22.19-.65.27-.43.09-.74.21-.94.37-.21.19-.36.83-.44,1.93-.09,1.1-.13,3.35-.13,6.74v2.32c0,1.15.06,1.91.19,2.27.13.36.37.57.72.65.19.04.43.07.73.08.31.02.47.08.47.19,0,.07-.02.12-.07.15-.05.03-.15.04-.3.04h-.17c-.18,0-.6-.02-1.26-.06-.66-.04-1.24-.06-1.72-.06-.36,0-.76.02-1.21.05-.46.03-.73.05-.82.05-.02,0-.09,0-.18-.01-.09,0-.17-.01-.21-.01-.1,0-.16-.01-.19-.03-.03-.03-.04-.06-.04-.11,0-.08.02-.14.08-.17.05-.04.14-.05.25-.05.53,0,.94-.08,1.25-.23.3-.15.51-.4.64-.74.1-.26.18-.79.22-1.61.04-.82.06-2.35.06-4.6,0-2.73-.06-4.51-.17-5.35-.11-.83-.31-1.32-.6-1.45-.27-.13-.6-.21-1-.24-.39-.03-.59-.1-.59-.22,0-.07.02-.12.06-.15.04-.03.11-.05.21-.05h.1c.23,0,.6.01,1.1.04.5.02.89.04,1.16.04.53,0,1.15-.03,1.86-.1.7-.06,1.13-.1,1.3-.1ZM129.4,62.06c.31,0,.98-.06,2.02-.19,1.04-.12,1.93-.19,2.67-.19,1.13,0,2.11.11,2.92.34.82.22,1.58.58,2.29,1.08,1.04.72,1.86,1.62,2.47,2.71.6,1.09.9,2.2.9,3.33,0,2.26-.81,4.12-2.44,5.56-1.62,1.44-3.74,2.16-6.35,2.16-.44,0-1.08-.02-1.89-.07-.82-.05-1.41-.07-1.78-.07-.52,0-1.06.03-1.65.08-.58.06-.9.09-.96.09-.09,0-.15-.02-.2-.05-.05-.03-.07-.08-.07-.14,0-.1.11-.17.32-.2.21-.03.37-.06.48-.1.3-.11.51-.3.62-.59.11-.29.17-.94.17-1.97v-5.5c0-2.33-.04-3.83-.12-4.51-.08-.68-.22-1.08-.43-1.2-.18-.11-.41-.19-.7-.24-.29-.05-.43-.12-.43-.2s.04-.14.12-.18c.07-.04.23-.05.47-.05.13,0,.36.02.71.05.35.04.63.05.85.05ZM133.67,62.16c-.76,0-1.41.06-1.95.17-.53.12-.86.26-.96.44-.08.13-.14.82-.18,2.05-.04,1.24-.06,2.92-.06,5.06,0,1.74.02,3.07.05,4.01.04.94.09,1.47.17,1.6.12.24.52.44,1.2.62.68.18,1.46.26,2.35.26,1.97,0,3.55-.64,4.73-1.93,1.18-1.28,1.78-2.99,1.78-5.11s-.65-3.89-1.94-5.21c-1.29-1.31-3.02-1.97-5.18-1.97ZM111.5,61.87c.51,0,1.07-.03,1.68-.09.61-.05.98-.08,1.09-.08.02,0,.05.01.07.04.02.03.03.05.03.08,0,.12-.17.21-.51.26-.34.06-.62.14-.83.23-.24.1-.41.36-.5.75-.09.39-.13,1.22-.13,2.47v6.14c0,1.49.39,2.62,1.17,3.37.78.75,1.95,1.13,3.5,1.13,1.2,0,2.23-.18,3.07-.53.84-.36,1.44-.86,1.8-1.5.26-.48.45-1.29.57-2.45.12-1.15.17-2.82.17-4.99,0-1.77-.05-2.91-.13-3.42-.09-.51-.25-.83-.48-.96-.12-.07-.36-.11-.72-.14-.36-.03-.54-.11-.54-.23,0-.06.02-.11.07-.14.05-.03.12-.05.22-.05.19,0,.51.02.97.06.46.04.83.06,1.11.06.53,0,1.04-.02,1.54-.06.08,0,.13-.01.14-.01.04,0,.07.02.1.05.03.03.05.07.05.12,0,.06-.25.12-.74.19-.5.07-.75.42-.75,1.03v.04c.02.09.02.17.02.23v1.52c0,1.95-.07,3.75-.22,5.36-.14,1.62-.33,2.8-.56,3.53-.3.98-.96,1.73-1.97,2.26-1.02.53-2.31.79-3.88.79-2.03,0-3.57-.42-4.61-1.27-1.05-.84-1.57-2.09-1.57-3.72,0-.05,0-.46.02-1.21.02-.76.02-1.5.02-2.22,0-1.89-.04-3.34-.12-4.32-.08-.99-.2-1.57-.37-1.74-.16-.15-.41-.25-.76-.28-.35-.03-.53-.1-.53-.21,0-.06.02-.1.06-.13.04-.03.11-.04.2-.04.03,0,.14,0,.32.02.66.05,1.3.07,1.9.07ZM105.28,78.24c-.26.32-.61.78-1.04,1.37-1.32,1.77-2.38,2.65-3.2,2.65-.19,0-.34-.05-.45-.13-.11-.09-.23-.26-.35-.52.16-.08.36-.2.61-.36.43-.26.73-.4.89-.4.05,0,.14.01.26.05.12.03.21.05.28.05.47,0,.8-.48,1-1.44.2-.96.3-2.68.3-5.16v-3.27c0-3.1-.05-5.23-.17-6.37-.11-1.14-.3-1.84-.59-2.09-.22-.2-.58-.33-1.09-.38-.51-.05-.77-.12-.77-.23,0-.08.02-.14.05-.17.04-.03.13-.05.29-.05.29,0,.73.02,1.33.05.59.03,1.05.05,1.36.05.35,0,.84-.02,1.47-.07.63-.05,1.08-.07,1.36-.07.11,0,.19.01.22.04.04.03.05.08.05.15,0,.12-.14.2-.4.24-.21.03-.39.07-.54.11-.43.11-.72.32-.86.62-.14.3-.21,1.03-.21,2.21v.28c0,2.55.02,4.87.05,6.97.03,2.1.08,4.06.14,5.89Z"/><path class="cls-1" d="M141.77,85.55s-.03-.06-.05-.09c-.04-.1-.08-.15-.12-.15s-.07.01-.1.04c-.03.03-.06.06-.08.12l-1.97,5.14c-.02.05-.04.1-.05.14-.01.04-.02.07-.02.08,0,.08,0,.12.02.13.02.02.08.03.2.03h4.2s.08-.02.09-.04c.02-.02.02-.05.02-.11,0-.05,0-.09-.02-.12-.01-.04-.03-.08-.05-.13l-2.08-5.06ZM145.46,94.87l-1.14-3.11c-.03-.08-.07-.14-.13-.18-.06-.04-.17-.06-.32-.06h-4.38c-.18,0-.29.02-.35.07-.06.04-.11.13-.15.24l-.99,2.71c-.05.13-.08.26-.11.39-.03.12-.04.23-.04.33,0,.4.28.67.84.83.56.16.84.27.84.33,0,.03-.02.07-.06.1-.04.02-.1.04-.17.04-.05,0-.11,0-.2-.01-.08,0-.15-.01-.18-.01-.05,0-.27-.02-.65-.06-.39-.03-.74-.05-1.07-.05-.28,0-.58.02-.92.05-.34.03-.54.04-.59.04-.03,0-.05-.01-.08-.03-.02-.02-.04-.05-.04-.08,0-.07.08-.13.25-.2.17-.06.31-.14.43-.22.44-.29,1.29-2.01,2.55-5.18l.29-.74c.64-1.63,1.28-3.31,1.91-5.04.63-1.73.98-2.6,1.05-2.6.12,0,.23.18.31.53.08.29.14.53.21.73.46,1.27,1,2.67,1.6,4.2.6,1.54,1.42,3.53,2.44,5.99.32.77.58,1.28.78,1.54.2.26.44.45.71.56.09.04.2.07.32.1.13.03.2.08.2.13,0,.05-.01.08-.04.1-.03.02-.07.03-.14.03-.02,0-.09,0-.2,0-.48-.04-.95-.06-1.41-.06-.36,0-.76.03-1.19.08-.44.05-.69.08-.76.08h-.16c-.07,0-.13,0-.16-.02-.03-.02-.05-.05-.05-.09,0-.07.18-.16.53-.28.36-.12.53-.33.53-.65,0-.06,0-.13-.03-.22-.02-.08-.05-.19-.1-.32ZM128.1,82.54c-.13.45-.23,1-.32,1.62-.08.63-.19.94-.32.94-.06,0-.11-.01-.15-.05-.04-.03-.06-.07-.06-.11,0-.02.02-.13.06-.33.03-.21.05-.4.05-.59,0-.37-.26-.63-.79-.78-.53-.15-1.45-.23-2.76-.23-.44,0-.89.02-1.36.05-.46.03-.94.09-1.42.16-.05.8-.09,1.61-.12,2.43-.03.82-.04,1.66-.04,2.52v.39c0,.22.05.35.16.4.11.05.39.08.85.08h1.03c1.2,0,2.03-.03,2.48-.1.46-.06.77-.17.93-.32.16-.16.28-.38.36-.67.08-.29.15-.44.23-.44.05,0,.08,0,.1.03.02.02.03.06.03.14,0,.07-.02.31-.06.7-.04.39-.06.73-.06,1.04,0,.37.02.75.06,1.14.04.39.06.61.06.65,0,.11-.01.19-.04.22-.03.04-.07.06-.13.06-.07,0-.13-.12-.17-.36-.04-.24-.08-.44-.12-.6-.13-.41-.36-.68-.7-.8-.34-.12-1.14-.18-2.4-.18h-1.23c-.63,0-1.02.03-1.16.08-.14.05-.21.21-.21.49v1.36c0,.99,0,1.79.03,2.4.02.6.05,1.19.08,1.77.52.08,1,.15,1.45.18.45.04.88.06,1.28.06,1.29,0,2.28-.13,2.97-.4.68-.27,1.22-.73,1.61-1.37.1-.15.19-.34.27-.56.09-.22.16-.34.23-.34.05,0,.09.01.11.03.02.02.03.06.03.11,0,.25-.08.67-.26,1.26-.17.59-.4,1.19-.68,1.8-.91-.03-1.76-.05-2.57-.06-.81-.02-1.54-.02-2.18-.02-1.83,0-3.49.06-4.97.17-.16,0-.25.01-.28.01-.08,0-.15-.01-.18-.03-.04-.02-.06-.05-.06-.1,0-.1.18-.19.55-.27.37-.08.6-.18.69-.31.13-.18.23-.96.29-2.32.06-1.36.1-3.28.1-5.75v-2.14c0-.95-.05-1.59-.13-1.91-.09-.33-.26-.54-.49-.63-.13-.06-.31-.12-.54-.17-.23-.05-.35-.13-.35-.23,0-.05.02-.08.05-.1.03-.02.08-.03.15-.03.02,0,.07,0,.17.01.63.05,1.3.08,1.98.08.09,0,.34,0,.76-.01,2.34-.05,4.71-.08,7.09-.08ZM103.11,82.82c.29,0,.91-.06,1.87-.17.96-.11,1.78-.17,2.47-.17,1.04,0,1.95.1,2.7.31.75.2,1.46.54,2.12,1,.96.66,1.72,1.5,2.28,2.51.55,1.01.83,2.03.83,3.08,0,2.09-.75,3.8-2.25,5.13-1.5,1.33-3.46,2-5.87,2-.41,0-.99-.02-1.75-.07-.75-.04-1.3-.06-1.65-.06-.48,0-.98.03-1.52.08-.54.05-.83.08-.89.08-.08,0-.14-.01-.18-.05-.04-.03-.06-.07-.06-.13,0-.1.1-.16.3-.18.19-.03.34-.06.44-.1.28-.1.47-.28.57-.54.1-.27.16-.87.16-1.82v-5.08c0-2.15-.04-3.54-.11-4.17-.08-.63-.21-1-.39-1.11-.16-.1-.38-.18-.64-.23-.26-.04-.4-.11-.4-.19s.03-.13.11-.16c.07-.03.21-.05.43-.05.12,0,.34.02.66.05.32.04.58.05.78.05ZM107.05,82.91c-.7,0-1.3.05-1.8.16-.49.11-.79.24-.89.41-.08.12-.13.75-.17,1.89-.04,1.14-.06,2.7-.06,4.67,0,1.61.02,2.84.05,3.71.03.86.08,1.36.15,1.48.11.22.48.41,1.11.57.63.16,1.35.24,2.17.24,1.82,0,3.28-.59,4.37-1.78,1.09-1.18,1.64-2.76,1.64-4.72s-.6-3.6-1.79-4.81c-1.19-1.21-2.79-1.82-4.79-1.82Z"/><path class="cls-1" d="M221.39,96.32l-.1.21h-.27v-.22c0-.89-.14-1.84-.42-2.82-.07-.27-.11-.44-.11-.5,0-.04.03-.07.08-.1.06-.03.12-.04.18-.04.04,0,.11.21.23.64.11.42.24.77.4,1.03.27.46.8.84,1.59,1.15.79.31,1.62.47,2.49.47.92,0,1.63-.23,2.14-.7.51-.47.77-1.12.77-1.95,0-1.29-1.1-2.41-3.29-3.35-.31-.13-.54-.23-.7-.3-1.21-.52-2.05-1.06-2.53-1.63-.48-.56-.72-1.27-.72-2.11,0-1.08.41-1.99,1.24-2.71.83-.73,1.89-1.09,3.18-1.09.52,0,1.08.06,1.68.19.6.13.96.2,1.07.2.19,0,.37-.05.55-.14.18-.1.28-.15.3-.15.03,0,.06.02.09.04.03.03.05.06.05.1,0,.02-.01.08-.03.17-.1.42-.14.83-.14,1.23,0,.32.03.64.08.97.05.32.08.49.08.5,0,.06-.01.1-.04.11-.03.02-.09.02-.19.02-.02,0-.07-.15-.17-.46-.1-.31-.23-.6-.39-.88-.27-.47-.68-.84-1.25-1.11-.56-.27-1.21-.4-1.93-.4-.85,0-1.54.25-2.08.76-.54.51-.81,1.17-.81,1.97,0,1.27,1.07,2.36,3.22,3.26.53.22.94.4,1.22.52.94.43,1.65.96,2.13,1.6.48.64.72,1.38.72,2.23,0,1.06-.41,1.93-1.23,2.62-.82.68-1.88,1.03-3.17,1.03-.74,0-1.53-.08-2.37-.24-.84-.16-1.3-.24-1.37-.24-.03,0-.07.01-.11.04-.04.03-.06.05-.07.08M212.29,85.55s-.03-.06-.05-.09c-.04-.1-.08-.15-.12-.15s-.07.01-.1.04c-.03.03-.06.06-.08.12l-1.97,5.14c-.02.05-.04.1-.05.14-.01.04-.02.07-.02.08,0,.08,0,.12.02.13.02.02.08.03.2.03h4.2s.08-.02.09-.04c.02-.02.02-.05.02-.11,0-.05,0-.09-.02-.12-.01-.04-.03-.08-.05-.13l-2.08-5.06ZM215.97,94.87l-1.14-3.11c-.03-.08-.07-.14-.13-.18-.06-.04-.17-.06-.32-.06h-4.38c-.18,0-.29.02-.35.07-.06.04-.11.13-.15.24l-.99,2.71c-.05.13-.08.26-.11.39-.03.12-.04.23-.04.33,0,.4.28.67.84.83.56.16.84.27.84.33,0,.03-.02.07-.06.1-.04.02-.1.04-.17.04-.05,0-.11,0-.2-.01-.08,0-.15-.01-.18-.01-.05,0-.27-.02-.65-.06-.39-.03-.74-.05-1.07-.05-.28,0-.58.02-.92.05-.34.03-.54.04-.59.04-.03,0-.05-.01-.08-.03-.02-.02-.04-.05-.04-.08,0-.07.08-.13.25-.2.17-.06.31-.14.43-.22.44-.29,1.29-2.01,2.55-5.18l.29-.74c.64-1.63,1.28-3.31,1.91-5.04.63-1.73.98-2.6,1.05-2.6.12,0,.23.18.31.53.08.29.14.53.21.73.46,1.27,1,2.67,1.6,4.2.6,1.54,1.42,3.53,2.44,5.99.32.77.58,1.28.78,1.54.2.26.44.45.71.56.09.04.2.07.32.1.13.03.2.08.2.13,0,.05-.01.08-.04.1-.03.02-.07.03-.14.03-.02,0-.09,0-.2,0-.48-.04-.95-.06-1.41-.06-.36,0-.76.03-1.19.08-.44.05-.69.08-.76.08h-.16c-.07,0-.13,0-.16-.02-.03-.02-.05-.05-.05-.09,0-.07.18-.16.53-.28.36-.12.53-.33.53-.65,0-.06,0-.13-.03-.22-.02-.08-.05-.19-.1-.32ZM191.18,89.42c0-1.97.72-3.65,2.16-5.05,1.44-1.39,3.18-2.09,5.22-2.09s3.74.68,5.11,2.03c1.36,1.35,2.05,3.05,2.05,5.08s-.71,3.78-2.12,5.18c-1.41,1.4-3.17,2.1-5.26,2.1s-3.68-.71-5.07-2.13c-1.39-1.42-2.08-3.13-2.08-5.13ZM198.08,83.02c-1.63,0-2.94.51-3.95,1.53-1.01,1.02-1.51,2.35-1.51,4,0,.81.14,1.64.42,2.47.28.83.66,1.58,1.16,2.24.61.84,1.35,1.48,2.22,1.94.87.45,1.78.68,2.73.68,1.53,0,2.76-.52,3.7-1.56.93-1.04,1.4-2.4,1.4-4.09,0-1.95-.61-3.64-1.83-5.08-1.23-1.43-2.67-2.15-4.33-2.15ZM174.87,89.59c0-2.07.73-3.78,2.21-5.14,1.47-1.36,3.32-2.04,5.54-2.04.96,0,1.98.16,3.03.48.24.07.39.11.45.11.12,0,.25-.09.39-.28.14-.18.23-.27.28-.27.06,0,.1.01.12.04.02.03.03.09.03.18,0,.84.08,1.7.26,2.6.05.23.07.38.07.44,0,.03-.02.05-.06.08-.03.02-.08.03-.13.03-.05,0-.11-.1-.18-.29-.08-.2-.16-.37-.25-.52-.44-.73-1.02-1.27-1.74-1.62-.72-.36-1.6-.53-2.64-.53-1.66,0-3.03.6-4.12,1.81-1.09,1.2-1.64,2.75-1.64,4.63s.58,3.52,1.75,4.79c1.17,1.27,2.63,1.91,4.4,1.91.78,0,1.48-.1,2.11-.29.63-.19,1.01-.41,1.15-.65.06-.11.1-.3.12-.55.02-.26.03-.81.03-1.66v-.58c0-.93-.05-1.5-.15-1.73-.1-.23-.31-.37-.65-.42-.26-.05-.58-.07-.97-.08-.44-.02-.66-.09-.66-.23,0-.05.02-.09.05-.12.03-.03.09-.04.16-.04.05,0,.19,0,.41.02.8.04,1.54.06,2.22.06.08,0,.14,0,.21-.01.07,0,.1-.01.11-.01.25,0,.54-.01.88-.03.34-.02.55-.03.63-.03.05,0,.09.01.11.03.02.02.03.06.03.12,0,.1-.08.18-.24.22-.16.04-.29.1-.39.18-.1.07-.16.26-.2.56-.04.3-.06.88-.06,1.76v.73c0,.73.01,1.24.04,1.54.03.3.06.49.12.57.02.03.08.06.18.11.1.04.15.11.15.2,0,.1-.1.16-.31.2-.08.02-.15.03-.19.03-.28.05-.69.12-1.25.23-1.58.29-2.81.44-3.67.44-2.27,0-4.12-.65-5.57-1.95-1.44-1.3-2.16-2.97-2.16-5.01ZM167.23,85.55s-.03-.06-.05-.09c-.04-.1-.08-.15-.12-.15s-.07.01-.1.04c-.03.03-.06.06-.08.12l-1.97,5.14c-.02.05-.04.1-.05.14-.01.04-.02.07-.02.08,0,.08,0,.12.02.13.02.02.08.03.2.03h4.2s.08-.02.09-.04c.02-.02.02-.05.02-.11,0-.05,0-.09-.02-.12-.01-.04-.03-.08-.05-.13l-2.08-5.06ZM170.92,94.87l-1.14-3.11c-.03-.08-.07-.14-.13-.18-.06-.04-.17-.06-.32-.06h-4.38c-.18,0-.29.02-.35.07-.06.04-.11.13-.15.24l-.99,2.71c-.05.13-.08.26-.11.39-.03.12-.04.23-.04.33,0,.4.28.67.84.83.56.16.84.27.84.33,0,.03-.02.07-.06.1-.04.02-.1.04-.17.04-.05,0-.11,0-.2-.01-.08,0-.15-.01-.18-.01-.05,0-.27-.02-.65-.06-.39-.03-.74-.05-1.07-.05-.28,0-.58.02-.92.05-.34.03-.54.04-.59.04-.03,0-.05-.01-.08-.03-.02-.02-.04-.05-.04-.08,0-.07.08-.13.25-.2.17-.06.31-.14.43-.22.44-.29,1.29-2.01,2.55-5.18l.29-.74c.64-1.63,1.28-3.31,1.91-5.04.63-1.73.98-2.6,1.05-2.6.12,0,.23.18.31.53.08.29.14.53.21.73.46,1.27,1,2.67,1.6,4.2.6,1.54,1.42,3.53,2.44,5.99.32.77.58,1.28.78,1.54.2.26.44.45.71.56.09.04.2.07.32.1.13.03.2.08.2.13,0,.05-.01.08-.04.1-.03.02-.07.03-.14.03-.02,0-.09,0-.2,0-.48-.04-.95-.06-1.41-.06-.36,0-.76.03-1.19.08-.44.05-.69.08-.76.08h-.16c-.07,0-.13,0-.16-.02-.03-.02-.05-.05-.05-.09,0-.07.18-.16.53-.28.36-.12.53-.33.53-.65,0-.06,0-.13-.03-.22-.02-.08-.05-.19-.1-.32ZM160.08,96.53c-.29-.06-.63-.1-1.02-.13-.39-.03-.93-.05-1.62-.05-2.4,0-4.65.03-6.77.1-.26,0-.42.01-.47.01-.08,0-.14,0-.16-.03-.03-.02-.04-.05-.04-.11,0-.1.1-.18.3-.21.21-.05.39-.1.54-.16.24-.09.4-.28.49-.55.09-.28.13-.8.13-1.55,0-.21,0-.66-.01-1.34,0-.68-.01-1.28-.01-1.78,0-2.49-.03-4.3-.08-5.42-.05-1.12-.14-1.79-.25-2-.1-.2-.33-.32-.69-.37-.36-.05-.53-.1-.53-.14,0-.08.02-.13.05-.16.03-.03.07-.04.14-.04.02,0,.1,0,.24.02.55.05,1.07.07,1.57.07s1.05-.03,1.64-.08c.59-.05.92-.08.99-.08.03,0,.05.02.08.05.02.03.03.07.03.11,0,.09-.17.15-.5.19-.34.04-.6.11-.8.22-.16.09-.28.35-.34.78-.06.43-.1,1.28-.1,2.55v1.93c0,2.07.01,3.68.03,4.83.02,1.15.05,1.82.1,2.02.06.25.23.42.5.5.27.08.77.12,1.49.12,1.23,0,2.31-.1,3.24-.31.93-.21,1.52-.46,1.76-.75.13-.18.25-.43.34-.75.09-.32.19-.47.3-.47.07,0,.11.01.14.04.03.03.04.08.04.16,0,.27-.11.73-.32,1.37-.22.65-.37,1.12-.45,1.41Z"/><polygon class="cls-2" points="52.95 76.01 40.22 61.97 40.22 77.03 53.01 77.03 52.95 76.01"/><path class="cls-2" d="M51.41,45.62c-5.96,1.77-10.92,6.41-11.64,13.9l13.08,14.49-1.44-28.4Z"/><path class="cls-2" d="M54.96,97.4l.13,2.5.91,2.15v-57.22c-1.24.07-2.48.25-3.68.54l2.64,52.03h0Z"/><polygon class="cls-2" points="88.22 77.03 75.01 61.95 75.12 77.03 88.22 77.03"/><path class="cls-2" d="M58.18,44.83v52.62h0s0,4.63,0,4.63l.92-2.18,2.75-54.54c-1.2-.29-2.44-.47-3.68-.53Z"/><path class="cls-2" d="M61.63,39.77c7.68,1.86,13.34,8.35,13.34,16.06,0,1.27-.16,2.51-.46,3.71l14.99,16.79c1.93-4.37,3.01-9.2,3.01-14.28,0-18.87-14.76-34.29-33.36-35.36l2.47,13.09Z"/><polygon class="cls-2" points="39.22 61.95 26.01 77.03 39.11 77.03 39.22 61.95"/><path class="cls-2" d="M53.31,82.94c-2.63,3.56-7.56,5.97-13.22,5.97-2.93,0-5.66-.66-7.98-1.77,5.73,5.71,13.4,9.46,21.94,10.19l-.73-14.39Z"/><path class="cls-2" d="M74.15,88.91c-5.69,0-10.64-2.43-13.26-6.03l-.73,14.44c8.51-.73,16.16-4.47,21.89-10.15-2.3,1.09-5,1.73-7.9,1.73Z"/><path class="cls-2" d="M39.68,59.58c-.3-1.21-.47-2.46-.47-3.75,0-7.66,5.59-14.11,13.2-16.02l1.66-13.05c-18.14,1.54-32.39,16.75-32.39,35.28,0,5.09,1.08,9.92,3.01,14.29l15-16.76Z"/><polygon class="cls-2" points="74.01 61.97 61.23 76.07 61.18 77.03 74.01 77.03 74.01 61.97"/><path class="cls-2" d="M62.77,45.61l-1.44,28.46,13.08-14.5c-.71-7.55-5.67-12.2-11.65-13.96Z"/></svg>