<?xml version="1.0" encoding="UTF-8"?><svg id="Camada_1" xmlns="http://www.w3.org/2000/svg" viewBox="0 0 500 500"><defs><style>.cls-1{fill:#fff;}</style></defs><path class="cls-1" d="M250,260.37c-8.97,0-219.69.64-219.69,56.09,0,43.53,128.5,53.23,183.3,55.38l-18.02,17.92c-4.75,4.71-4.77,12.39-.05,17.14h0c4.72,4.76,12.4,4.79,17.14.06l34.52-34.32c4.75-4.72,5.17-12.75.86-17.88-8.72-10.36-22.83-27.01-31.59-37.36-4.33-5.09-11.98-5.74-17.09-1.39-5.1,4.34-5.73,11.98-1.39,17.09l12.19,14.37c-77.29-3.14-125.52-14.76-145.44-24.2-6.05-2.86-6.11-10.81-.06-13.7,24-11.39,88.2-24.96,185.32-24.96s161.32,13.57,185.32,24.96c6.05,2.87,5.99,10.83-.07,13.7-20.79,9.84-72.32,22.09-155.64,24.59-6.68.2-12.02,5.72-11.9,12.42.12,6.69,5.64,12.02,12.33,11.8,50.42-1.64,189.65-10.3,189.65-55.61,0-55.45-210.72-56.09-219.69-56.09Z"/><path class="cls-1" d="M63.54,240.34v-23.92h2.7c12.86,7.36,24.9,11.03,36.13,11.03,8.87,0,15.81-1.83,20.8-5.51,5-3.67,7.5-9.05,7.5-16.13,0-5.61-1.95-9.95-5.85-13.01-3.9-3.06-11.97-4.59-24.21-4.59h-7.41v-19.12h6.99c18.86,0,28.3-5.75,28.3-17.27,0-4.83-2.02-8.49-6.07-10.99-4.04-2.5-9.8-3.75-17.27-3.75-10.05,0-21.84,3.59-35.37,10.78h-2.53v-23.67c14.26-5.33,27.99-8,41.18-8,15.61,0,27.41,2.86,35.41,8.59,8,5.73,12,13.33,12,22.82,0,7.07-2.22,13.27-6.65,18.57-4.44,5.31-10.36,8.86-17.77,10.66v1.18c8.48,1.52,15.19,4.81,20.13,9.9,4.94,5.08,7.41,11.64,7.41,19.67,0,12.35-4.71,22.24-14.15,29.65-9.43,7.41-22.21,11.12-38.32,11.12-15.61-.01-29.93-2.68-42.95-8.01Z"/><path class="cls-1" d="M267.78,118.3v21.73h-2.45c-5.33-2.58-11.77-3.87-19.29-3.87-22.96,0-35.76,12.02-38.4,36.05,11.12-6.63,21.17-9.94,30.15-9.94,12.42,0,22.42,3.57,30.03,10.7,7.6,7.13,11.41,17.13,11.41,29.99s-4.56,24.27-13.69,32.72c-9.13,8.46-20.84,12.68-35.16,12.68-16.45,0-29.04-5.07-37.77-15.21-8.73-10.13-13.1-24.77-13.1-43.92,0-23.53,5.77-41.58,17.31-54.16,11.54-12.57,28.28-18.86,50.24-18.86,7.76,0,14.66.7,20.73,2.11ZM207.56,185.93l-.09,3.45c-.06,1.85-.08,3.34-.08,4.47,0,23.7,7.69,35.54,23.08,35.54,6.18,0,11.16-2.18,14.94-6.57,3.79-4.38,5.69-10.53,5.69-18.44,0-15.44-8.06-23.16-24.17-23.16-6.28,0-12.75,1.57-19.37,4.72Z"/><path class="cls-1" d="M344.84,248.34c-17.24,0-29.88-5.24-37.94-15.7-8.06-10.48-12.09-27.28-12.09-50.41s4.04-39.64,12.13-50.2c8.09-10.56,20.71-15.83,37.9-15.83s29.82,5.27,37.9,15.79c8.08,10.53,12.13,27.25,12.13,50.15s-4.01,40.16-12.04,50.58c-8.03,10.42-20.69,15.62-37.99,15.62ZM344.84,135.81c-7.86,0-13.49,3.69-16.88,11.08-3.4,7.38-5.09,19.19-5.09,35.41s1.74,27.96,5.22,35.37,9.07,11.12,16.76,11.12,13.28-3.76,16.76-11.28c3.48-7.53,5.22-19.32,5.22-35.38s-1.7-27.93-5.09-35.29c-3.41-7.36-9.04-11.04-16.9-11.04Z"/><circle class="cls-1" cx="421.55" cy="116.19" r="26.68"/></svg>