<?xml version="1.0" encoding="UTF-8"?><svg id="Camada_1" xmlns="http://www.w3.org/2000/svg" viewBox="0 0 500 500"><defs><style>.cls-1{fill:#fff;}</style></defs><g id="Grupo_299"><g id="Grupo_298"><path id="Caminho_2017" class="cls-1" d="M238.51,221.57c15.73-.03,28.51,12.71,28.53,28.44.03,15.73-12.71,28.51-28.44,28.53-7.57.01-14.84-2.99-20.19-8.35l-.03-.03c-11.1-11.06-11.14-29.03-.08-40.13.03-.03.05-.05.08-.08h0c5.33-5.35,12.58-8.36,20.14-8.35M379.89,261.16c-3.76,3.17-9.37,2.7-12.54-1.06-3.17-3.76-2.7-9.37,1.06-12.54l23.53-19.86c3.35-2.83,8.26-2.8,11.57.08l23.42,19.78c3.74,3.17,4.21,8.77,1.04,12.51-3.17,3.74-8.77,4.21-12.51,1.04h0l-8.19-6.9c-2.33,93.14-79.72,166.75-172.86,164.42-93.14-2.33-166.75-79.72-164.42-172.86,2.33-93.14,79.72-166.75,172.86-164.42,66.03,1.65,125.03,41.69,150.94,102.44,1.84,4.54-.34,9.71-4.88,11.56-4.43,1.8-9.49-.24-11.44-4.61-32.69-76.88-121.52-112.7-198.4-80.01-76.88,32.69-112.7,121.52-80.01,198.4,32.69,76.88,121.52,112.7,198.4,80.01,54.81-23.3,90.84-76.6,92.04-136.14l-9.62,8.12v.04ZM331.65,291.39c-3.48,2.31-7.09,4.41-10.82,6.29-8.02,4-16.4,7.25-25.02,9.69-2.45,8.63-5.69,17.01-9.69,25.03-1.89,3.72-3.99,7.32-6.3,10.79,23.08-10.28,41.53-28.74,51.8-51.82l.04.02ZM275.65,311.97c-24.55,4.14-49.63,4.14-74.18,0,1.54,4.25,3.33,8.4,5.36,12.43,8.62,17.01,19.87,27.53,31.73,27.53s23.11-10.53,31.73-27.53c2.03-4.04,3.82-8.19,5.38-12.43h-.02ZM181.28,307.36c-8.62-2.45-17-5.69-25.02-9.69-3.75-1.89-7.38-3.99-10.88-6.3,10.28,23.08,28.74,41.54,51.82,51.81-2.31-3.48-4.41-7.09-6.29-10.82-3.99-8.02-7.24-16.4-9.69-25.02M145.38,208.75c3.48-2.31,7.09-4.41,10.82-6.29,8.02-4,16.4-7.25,25.02-9.69,2.45-8.62,5.69-17,9.69-25.02,1.88-3.72,3.98-7.32,6.29-10.79-23.08,10.27-41.54,28.72-51.82,51.8M201.38,188.17c24.55-4.14,49.63-4.14,74.18,0-1.54-4.25-3.34-8.4-5.38-12.43-8.62-17.01-19.87-27.53-31.73-27.53s-23.11,10.53-31.73,27.53c-2.03,4.04-3.82,8.19-5.36,12.43h.02ZM295.75,192.78c8.63,2.44,17,5.68,25.02,9.69,3.73,1.88,7.35,3.98,10.84,6.28-10.27-23.07-28.72-41.52-51.8-51.8,2.31,3.48,4.41,7.09,6.29,10.82,4.01,8.02,7.25,16.4,9.69,25.03l-.04-.03ZM312.81,281.78c17.01-8.62,27.53-19.87,27.53-31.73s-10.53-23.11-27.53-31.73c-4.04-2.03-8.19-3.83-12.43-5.38,4.14,24.55,4.14,49.63,0,74.18,4.25-1.54,8.4-3.34,12.43-5.38v.03ZM281.2,207.38c-28.14-6-57.22-6-85.36,0-6,28.14-6,57.22,0,85.36,28.14,6,57.22,6,85.36,0,6-28.14,6-57.22,0-85.36M176.64,212.95c-4.25,1.54-8.4,3.34-12.43,5.38-17.01,8.62-27.53,19.87-27.53,31.73s10.53,23.11,27.53,31.73c4.04,2.03,8.19,3.83,12.43,5.38-4.15-24.55-4.15-49.63,0-74.18v-.03ZM238.51,130.42c66.07,0,119.63,53.55,119.64,119.62,0,66.07-53.55,119.63-119.62,119.64-66.07,0-119.63-53.55-119.64-119.62,0-31.73,12.6-62.16,35.04-84.6,22.41-22.47,52.85-35.09,84.58-35.04M246.06,242.48c-4.16-4.17-10.91-4.19-15.09-.03,0,0-.02.02-.03.03h0c-4.16,4.2-4.14,10.97.06,15.13,4.2,4.16,10.97,4.14,15.13-.06,1.98-1.99,3.09-4.69,3.1-7.49,0-2.84-1.12-5.56-3.14-7.56"/></g></g></svg>