<?xml version="1.0" encoding="UTF-8"?><svg id="Camada_1" xmlns="http://www.w3.org/2000/svg" viewBox="0 0 500 500"><defs><style>.cls-1{fill:#fff;}</style></defs><path class="cls-1" d="M433.61,217.86c-15.63-75.58-60.49-124.86-134.15-147.53-11.24-3.46-23.31-4.21-35-6.22-.94-.16-1.87-.4-2.81-.61h-23.31c-6.95.95-13.92,1.76-20.84,2.88-72.87,11.89-134.58,70.94-149.55,143.27-1.74,8.41-2.56,17-3.82,25.51-.16,1.06-.41,2.11-.63,3.16v23.31c.95,6.95,1.62,13.95,2.9,20.84,9.74,52.4,36.93,93.49,81.05,123.2,26.68,17.97,56.35,27.81,88.45,30.22.82.06,1.62.38,2.43.57h23.31c6.83-.93,13.69-1.63,20.47-2.83,42.87-7.61,78.86-27.76,107.65-60.31,27.47-31.06,42.78-67.48,46.1-108.87.08-.95.4-1.88.6-2.82v-23.31c-.94-6.83-1.48-13.74-2.87-20.48ZM185.29,393.62c21.79-21.75,43.39-43.32,64.83-64.73,21.36,21.36,42.88,42.88,64.69,64.69-43.21,18.44-86.37,18.43-129.52.04ZM340.72,378.31c-.61-.88-1.17-2.02-2.02-2.87-23.93-23.97-47.9-47.9-71.76-71.93-1.27-1.28-2.23-3.47-2.26-5.26-.2-11.53,0-23.07-.18-34.6-.04-2.58.88-3.48,3.18-4.23,24.06-7.93,48.08-15.95,72.1-24,6.91-2.32,10.87-7.73,10.74-14.35-.12-6.26-4.12-12.11-10.29-13.43-3.36-.72-7.32-.45-10.61.61-25.48,8.25-50.84,16.85-76.29,25.18-1.99.65-4.55.7-6.53.05-25.79-8.45-51.51-17.13-77.29-25.64-10.6-3.5-20.47,3.59-20.02,14.19.27,6.29,4.2,11.2,10.95,13.46,18.96,6.35,37.93,12.65,56.9,18.97,5.96,1.99,11.91,4,18.09,6.08,0,13.2.03,26.3-.06,39.39,0,.93-.68,2.05-1.38,2.74-24.86,24.93-49.76,49.81-74.65,74.7-.17.17-.41.26-.8.5-53.38-37.62-79.48-107.14-58.86-174.33,20.28-66.1,82.72-113.24,155.88-110.76,70.05,2.38,129.39,50.62,146.7,117.59,17.51,67.71-11.64,133.36-61.54,167.95Z"/><path class="cls-1" d="M250.11,120.89c-23.8-.06-43.12,19.08-43.26,42.85-.14,23.97,19.09,43.39,43.03,43.45,23.8.06,43.11-19.07,43.26-42.86.15-23.97-19.07-43.38-43.03-43.44Z"/></svg>