<?xml version="1.0" encoding="UTF-8"?><svg id="Camada_1" xmlns="http://www.w3.org/2000/svg" viewBox="0 0 500 500"><defs><style>.cls-1{fill:#fff;}</style></defs><g id="Grupo_827"><g id="noun-agenda-2927322"><g id="Grupo_824"><path id="Caminho_5267" class="cls-1" d="M373.53,115.25h-11.23v-11.23c0-6.2-5.03-11.23-11.23-11.23s-11.23,5.03-11.23,11.23v11.23h-44.92v-11.23c0-6.2-5.03-11.23-11.23-11.23s-11.23,5.03-11.23,11.23v11.23h-44.92v-11.23c0-6.2-5.03-11.23-11.23-11.23s-11.23,5.03-11.23,11.23v11.23h-44.92v-11.23c.35-5.85-4.1-10.88-9.95-11.23-.43-.03-.86-.03-1.28,0-5.85-.35-10.88,4.1-11.23,9.95-.03.43-.03.86,0,1.28v11.23h-11.23c-18.27-.33-33.36,14.21-33.69,32.48,0,.4,0,.81,0,1.21v224.6c-.33,18.27,14.21,33.36,32.48,33.69.4,0,.81,0,1.21,0h247.06c18.27.33,33.36-14.21,33.69-32.48,0-.4,0-.81,0-1.21v-224.6c.33-18.27-14.21-33.36-32.48-33.69-.4,0-.81,0-1.21,0ZM126.47,137.71h11.23v11.23c-.35,5.85,4.1,10.88,9.95,11.23.43.03.86.03,1.28,0,5.85.35,10.88-4.1,11.23-9.95.03-.43.03-.86,0-1.28v-11.23h44.92v11.23c0,6.2,5.03,11.23,11.23,11.23s11.23-5.03,11.23-11.23v-11.23h44.92v11.23c0,6.2,5.03,11.23,11.23,11.23s11.23-5.03,11.23-11.23v-11.23h44.92v11.23c0,6.2,5.03,11.23,11.23,11.23s11.23-5.03,11.23-11.23v-11.23h11.23c5.85-.35,10.88,4.1,11.23,9.95.03.43.03.86,0,1.28v33.69H115.24v-33.69c-.35-5.85,4.1-10.88,9.95-11.23.43-.03.86-.03,1.28,0ZM373.53,384.77H126.47c-5.85.35-10.88-4.1-11.23-9.95-.03-.43-.03-.86,0-1.28v-168.45h269.52v168.45c.35,5.85-4.1,10.88-9.95,11.23-.43.03-.86.03-1.28,0Z"/></g></g></g></svg>