<?xml version="1.0" encoding="UTF-8"?><svg id="Camada_1" xmlns="http://www.w3.org/2000/svg" viewBox="0 0 500 500"><defs><style>.cls-1{fill:#fff;}</style></defs><path class="cls-1" d="M190.69,249.71c0-16.67-.03-33.35.03-50.02.01-3.94.41-7.88.5-11.82.03-1.48.65-1.81,1.98-1.81,10.2-.03,20.4-.14,30.6-.16,9.43-.02,18.86-.02,28.29.1,5.53.07,11.07.25,16.59.62,6.17.41,12.02,2.24,17.72,4.56,8.81,3.58,16.98,8.17,23.7,15.03,6.62,6.75,12.33,14.13,15.43,23.2,2.71,7.93,3.37,16.12,2.94,24.46-.35,6.83-1.4,13.49-4.03,19.84-4.14,10.02-10.71,18.15-19.29,24.72-7.97,6.1-16.72,10.71-26.48,13.06-5.45,1.31-11.08,2.39-16.66,2.52-20.01.49-40.02.54-60.04.72-2.96.03-5.91-.25-8.87-.3-1.32-.02-1.8-.53-1.83-1.87-.2-10.47-.55-20.94-.67-31.41-.12-10.47-.03-20.95-.03-31.43.04,0,.07,0,.11,0ZM234.91,251.72s-.02,0-.02,0c0,3.12-.03,6.25,0,9.37.09,6.63.22,13.26.32,19.89.01.94.06,1.75,1.37,1.73,6.73-.14,13.49.19,20.17-.46,10.41-1.02,18.47-6.22,23.45-15.59,4.15-7.83,4.85-16.22,2.86-24.74-2.68-11.47-9.31-19.7-21.01-22.73-4.87-1.26-10.05-1.45-15.11-1.79-3.42-.23-6.89.14-10.33.21-.83.02-1.34.27-1.37,1.22-.07,1.97-.3,3.94-.31,5.91-.04,8.99-.02,17.98-.02,26.97Z"/><path class="cls-1" d="M145.2,286.74c-2.04,0-3.9.01-5.75,0-11.51-.08-23.03-.19-34.54-.25-2.36-.01-4.72.04-7.06.24-.66.06-1.54.58-1.87,1.15-4.51,7.89-8.99,15.8-13.37,23.76-.79,1.43-1.62,1.95-3.3,1.93-8.39-.12-16.78-.06-25.17-.07-.64,0-1.28,0-2.26,0,0-4.15-.1-8.08.06-12.01.05-1.12.7-2.3,1.31-3.31,13.16-21.99,26.39-43.94,39.51-65.95,7.83-13.12,15.49-26.34,23.24-39.51.94-1.6,1.96-3.16,2.91-4.76.62-1.04,1.43-1.46,2.69-1.45,12.94.07,25.88.11,38.82.06,1.69,0,2.41.64,2.68,2.12.89,4.95,1.87,9.88,2.65,14.85,1.46,9.23,2.77,18.49,4.22,27.72,1.74,11.01,3.51,22.02,5.37,33.01,1.84,10.89,3.86,21.75,5.69,32.64.78,4.63,1.29,9.31,1.89,13.97.1.8.01,1.62.01,2.62h-34.02c-1.26-9.03-2.49-17.83-3.74-26.77ZM136.55,214.81c-.18-.03-.36-.07-.55-.1-8.79,15.52-17.57,31.05-25.72,47.12h31.84c-1.87-15.8-3.72-31.41-5.57-47.02Z"/><path class="cls-1" d="M331.88,375.13c1.43-.78,2.82-1.62,4.29-2.32,10.93-5.15,20.72-12.05,29.99-19.72,9.8-8.1,18.6-17.14,26.06-27.48,10.17-14.09,17.22-29.54,20.9-46.53,2.58-11.9,3.39-23.96,2.89-36.09-1.14-27.72-10.44-52.39-28.2-73.78-9.03-10.88-18.98-20.89-30.62-28.94-7.09-4.9-14.87-8.82-22.33-13.19-1.04-.61-2.04-1.27-3.05-1.93-.16-.1-.26-.3-.28-.84,1.79.25,3.58.47,5.36.75,20.53,3.24,39.41,10.71,56.65,22.31,18.69,12.57,33.6,28.52,43.49,48.92,4.55,9.38,7.34,19.28,8.9,29.57,1.6,10.53,2.63,21.1,2.07,31.75-.22,4.13-.91,8.24-1.51,12.35-1.38,9.54-3.38,18.94-6.81,27.99-5.89,15.53-15.4,28.57-27.45,39.84-5.93,5.54-11.97,10.96-18.85,15.33-15.12,9.62-31.19,17.05-48.75,20.98-3.82.85-7.79,1.07-11.69,1.56-.3.04-.61-.04-.92-.06l-.15-.48Z"/><path class="cls-1" d="M293.44,154.5c4.03.28,8.08.39,12.08.87,9.54,1.14,18.8,3.47,27.77,6.93,11.58,4.47,21.89,10.93,31.22,19.11,9.11,7.99,16.55,17.19,21.65,28.21,3.89,8.4,6.47,17.21,7.34,26.43.58,6.1,1.08,12.25.89,18.36-.43,13.64-3.07,26.85-9.5,39.05-7.07,13.41-17.2,24.09-29.6,32.71-13.33,9.26-27.87,15.6-43.95,18.06-5.61.86-11.33.99-17,1.44-.36.03-.72-.07-1.32-.49.77-.6,1.47-1.31,2.31-1.77,4.99-2.73,10.13-5.22,15.01-8.14,12.86-7.69,23.13-18.16,31.74-30.33,7.46-10.55,12.57-22.13,15.22-34.79,1.95-9.29,2.21-18.7,1.61-28.13-1.29-20.41-9.28-38.09-22.18-53.71-9.48-11.48-20.89-20.54-34.17-27.29-2.96-1.51-5.69-3.49-8.52-5.25-.32-.2-.66-.36-.98-.54l.37-.75Z"/></svg>