<?xml version="1.0" encoding="UTF-8"?><svg id="Camada_1" xmlns="http://www.w3.org/2000/svg" viewBox="0 0 500 500"><defs><style>.cls-1{fill:#fff;}</style></defs><g id="Grupo_278"><path id="Caminho_1964" class="cls-1" d="M242.23,75.66l-132.53,92.75H31.5c-7.51.02-13.59,6.1-13.61,13.61v135.97c.02,7.51,6.1,13.59,13.61,13.61h78.2l132.53,92.74c6.17,4.31,14.66,2.8,18.97-3.37,1.59-2.28,2.45-4.99,2.45-7.77V86.82c-.01-7.53-6.13-13.62-13.66-13.61-2.78,0-5.49.86-7.77,2.44M45.16,195.62h55.31v108.81h-55.31v-108.81ZM236.4,387.12l-108.8-76.19v-121.85l108.8-76.15v274.19Z"/><path id="Caminho_1965" class="cls-1" d="M358.81,141.19c-7.51.02-13.59,6.1-13.61,13.61v190.41c0,7.52,6.09,13.61,13.6,13.62s13.61-6.09,13.62-13.6h0v-190.42c-.03-7.5-6.11-13.57-13.61-13.61"/><path id="Caminho_1966" class="cls-1" d="M304.38,209.24c-7.51.02-13.59,6.1-13.61,13.61v54.36c0,7.52,6.09,13.61,13.6,13.62,7.52,0,13.61-6.09,13.62-13.6h0v-54.38c0-7.51-6.07-13.6-13.58-13.61-.01,0-.02,0-.03,0"/><path id="Caminho_1967" class="cls-1" d="M413.18,195.63c-7.51.02-13.58,6.1-13.6,13.61v81.59c0,7.52,6.09,13.61,13.6,13.62,7.52,0,13.61-6.09,13.62-13.6h0v-81.6c0-7.51-6.07-13.6-13.58-13.61-.01,0-.02,0-.03,0"/><path id="Caminho_1968" class="cls-1" d="M468.51,168.41c-7.51.01-13.6,6.1-13.62,13.61v135.97c0,7.52,6.09,13.61,13.6,13.62s13.61-6.09,13.62-13.6h0v-135.98c-.02-7.51-6.1-13.59-13.61-13.61"/></g></svg>