<?xml version="1.0" encoding="UTF-8"?><svg id="Camada_1" xmlns="http://www.w3.org/2000/svg" viewBox="0 0 500 500"><defs><style>.cls-1{fill:#fff;}</style></defs><path class="cls-1" d="M256.33,337.23c0-10.19-.08-20.39.02-30.58.16-17.74,7.66-28.25,20.18-28.47,13.27-.24,20.65,9.38,20.89,27.45.13,10.21.02,20.43,2.94,30.72,0-6.32.28-12.66-.06-18.97-.75-13.81,4.16-23.86,18.65-26.11,12.03-1.87,21.56,8.68,23.08,24.11.22,2.24.24,4.49.16,2.88,9.57-2.59,20.02-8.72,29.13-7.13,13.92,2.44,13.28,16.26,13.21,27.98-.17,32.56.27,65.13-.28,97.68-.46,27.21-3.66,29.87-30.67,29.87-54.84,0-109.68-.33-164.52.25-11.86.13-17.35-3.45-19.9-15.25-8.68-40.06-18.22-79.93-27.55-119.85-3.24-13.86,7.1-13.78,15.28-14.11,16.91-.69,31.15,17.26,34.88,40.33,1.92,11.86,6.48,23.29,9.84,34.91,2.28-.04,4.56-.08,6.83-.12,1.47-7.62,4.14-15.24,4.2-22.87.39-48.55.21-97.11.23-145.67,0-5.14-.18-10.31.31-15.41,1.18-12.29,7.34-21.29,20.31-20.9,12.52.37,19.49,8.41,19.48,21.45-.02,27.99-.08,55.98-.11,83.97-.02,14.75,0,29.5,0,44.24,1.15-.14,2.3-.28,3.45-.42Z"/><path class="cls-1" d="M142.19,88.19c-15.12-.06-26.59-11.74-26.73-27.22-.14-15.53,11.03-27.46,26.1-27.87,15.07-.42,28.59,13.05,28.24,28.11-.34,14.8-12.87,27.04-27.62,26.98Z"/><path class="cls-1" d="M281.22,60.66c0,14.96-12.18,27.38-27.01,27.53-14.59.16-29.05-14.2-28.61-28.4.41-13.43,14.82-26.87,28.56-26.64,14.84.25,27.06,12.68,27.06,27.51Z"/><path class="cls-1" d="M281.25,156.15c-.15,14.38-12.68,27.17-26.9,27.43-14.11.26-28.93-14.16-28.79-28,.14-14.08,14.75-27.53,29.35-27.02,14.89.52,26.49,12.67,26.34,27.59Z"/><path class="cls-1" d="M115.46,154.96c.35-15.53,11.92-26.72,27.33-26.43,14.97.28,27.08,12.57,26.98,27.39-.1,15-14.01,28.31-28.81,27.57-14.74-.74-25.84-13.16-25.5-28.53Z"/></svg>