<?xml version="1.0" encoding="UTF-8"?><svg id="Camada_1" xmlns="http://www.w3.org/2000/svg" viewBox="0 0 500 500"><defs><style>.cls-1{fill:#fff;}</style></defs><path class="cls-1" d="M446.01,116.61c0-.61,0-1.23-.03-1.84-.29-5.11-4.03-9.81-8.66-10.88-6.97-1.62-13.69,3.88-13.88,11.4-.07,2.65,0,5.31-.02,7.96,0,.58-.11,1.16-.16,1.69-3.5.42-90.3.25-91.86-.19,0-.69,0-1.43,0-2.17,0-2.59.08-5.18-.05-7.75-.33-6.84-6.18-11.76-12.14-11.15-6.1.61-10.32,5.59-10.38,11.98,0,.93,0,1.86,0,3.23-16.23-9.07-32.1-17.94-48.01-26.83v-2.21c0-3.67.03-7.35,0-11.02-.07-6.31-5.16-11.54-11.19-11.57-5.94-.03-11.03,5.02-11.24,11.29-.11,3.26-.03,6.53-.04,9.79,0,1.01,0,2.03,0,3.06-13.83,8.57-27.57,17.08-41.51,25.72-.04-1.05-.06-1.72-.1-2.39-.49-7.18-6.88-12.27-13.61-10.83-5.07,1.08-8.85,5.87-8.96,11.43-.05,2.65,0,5.31-.02,7.96,0,.58-.1,1.15-.15,1.71h-97.42c-.04-.84-.08-1.57-.1-2.3-.04-2.92.1-5.86-.15-8.77-.56-6.44-6.76-11.24-12.87-10.14-5.59,1.01-9.48,5.78-9.49,11.74-.02,8.78,0,17.55,0,26.33v150.21c0,42.25,0,84.49,0,126.74,0,5.76,2.79,9.75,7.31,12.62,2.02,1.28,4.35,1.32,6.66,1.32,121.33,0,242.65,0,363.98,0,.52,0,1.05.02,1.57,0,3.14-.13,6.09-.82,8.53-3.06,2.89-2.66,4.01-6.02,4.01-10-.03-101.03-.02-202.05-.02-303.08ZM76.63,148.67h346.67v32.31H76.63v-32.31ZM165.81,408.91c-1.42.43-85.9.6-89.01.19-.39-1.46-.52-201.26-.14-204.16,1.39-.41,85.74-.58,89.15-.15v204.12ZM264.65,409.16h-29.23c-.05-.69-.13-1.28-.13-1.87,0-40.12-.02-80.24.04-120.36,0-1.92.58-3.88,1.13-5.74,1.14-3.81,3.1-7.16,5.55-10.23.99-1.24,2.27-1.81,3.76-1.89,2.28-.12,4.57-.16,6.86-.23,2.02-.06,3.63.68,4.91,2.41,3.36,4.54,5.8,9.52,6.82,15.19.19,1.06.27,2.16.27,3.24.01,39.03.01,78.06.01,117.1v2.39ZM311.37,409.13h-24.18c-.02-.86-.06-1.71-.06-2.57,0-25.51,0-51.03,0-76.54,0-13.2-.09-26.4.05-39.6.06-5.33-.86-10.41-2.45-15.4-2.37-7.46-6.02-14.17-11.19-19.93-5.43-6.06-12.18-9.25-20.15-9.58-5.25-.21-10.45.08-15.54,1.61-5.04,1.51-9.28,4.28-12.72,8.41-5.81,6.98-9.7,14.99-11.61,23.98-.59,2.76-.71,5.67-.72,8.51-.04,39.39-.03,78.79-.03,118.18v2.93h-24.17v-204.42h122.76v204.4ZM423.17,409.14h-88.75c-.42-1.49-.52-201.93-.09-204.42h88.76c.43,1.48.53,202.1.08,204.42Z"/></svg>