<?xml version="1.0" encoding="UTF-8"?><svg id="Camada_1" xmlns="http://www.w3.org/2000/svg" viewBox="0 0 500 500"><defs><style>.cls-1{fill:#fff;}</style></defs><path class="cls-1" d="M239.85,142.6l115.65,49.69v-22.71c0-10.17,3.53-19.56,9.41-26.98h-125.06ZM253.04,350.37c-4.58,0-8.28-3.7-8.28-8.28s3.7-8.28,8.28-8.28h136.43c4.58,0,8.28,3.7,8.28,8.28s-3.7,8.28-8.28,8.28h-136.43ZM253.04,323.4c-4.58,0-8.28-3.7-8.28-8.28s3.7-8.28,8.28-8.28h136.43c4.58,0,8.28,3.7,8.28,8.28s-3.7,8.28-8.28,8.28h-136.43ZM253.04,296.44c-4.58,0-8.28-3.7-8.28-8.28s3.7-8.28,8.28-8.28h136.43c4.58,0,8.28,3.7,8.28,8.28s-3.7,8.28-8.28,8.28h-136.43ZM253.04,269.47c-4.58,0-8.28-3.7-8.28-8.28s3.7-8.28,8.28-8.28h136.43c4.58,0,8.28,3.7,8.28,8.28s-3.7,8.28-8.28,8.28h-136.43ZM315.77,225.94c4.58,0,8.28,3.7,8.28,8.28s-3.7,8.28-8.28,8.28h-62.73c-4.58,0-8.28-3.7-8.28-8.28s3.7-8.28,8.28-8.28h62.73ZM199.91,398.58l-54.42,14.58c-6.52,1.75-13.7.74-19.43-2.86-5.26-3.22-9.33-8.36-11.03-14.74l-56.75-211.82c-1.76-6.6-.66-13.33,2.51-18.85,3.19-5.53,8.48-9.85,15.09-11.61l34.49-9.24-.24-.87c-1.76-6.6-.68-13.35,2.51-18.88,3.7-5.82,8.3-9.77,15.09-11.6l162.14-43.45c6.49-1.73,13.75-.76,19.43,2.86,5.26,3.22,9.33,8.36,11.03,14.74l10.5,39.18h68.2c11.97,0,22.87,4.9,30.75,12.78,7.88,7.88,12.78,18.78,12.78,30.75v237.15c0,6.81-2.8,13.04-7.3,17.55-4.69,4.69-10.95,7.34-17.58,7.34h-192.89c-6.83,0-13.05-2.8-17.57-7.33-4.51-4.48-7.33-10.71-7.33-17.57v-8.15l.02.03ZM114.64,160l-34.5,9.25c-2.2.58-3.98,2.04-5.06,3.9-1.07,1.83-1.42,4.09-.83,6.32l56.75,211.82c.55,2.09,1.88,3.79,3.56,4.87,2.18,1.2,4.19,1.68,6.66,1.02l58.69-15.72v-9.56l-2.56.68c-6.47,1.73-13.75.76-19.43-2.86-5.26-3.22-9.33-8.36-11.03-14.74l-52.23-194.98h-.02ZM313.71,126.03l-9.35-34.91c-.55-2.09-1.88-3.79-3.56-4.87-2.18-1.2-4.19-1.68-6.66-1.02l-162.14,43.45c-2.14.57-4,1.97-5.05,3.9-1.07,1.84-1.42,4.11-.84,6.32,18.89,70.61,37.84,141.21,56.75,211.82.55,2.09,1.88,3.79,3.56,4.87,2.18,1.2,4.19,1.68,6.66,1.02l6.83-1.83v-203.84c0-6.86,2.8-13.09,7.3-17.58,4.5-4.5,10.72-7.3,17.58-7.3h88.92v-.03ZM360.49,212.45l-144.02-61.87-.02,256.16c0,2.28.94,4.37,2.44,5.87,1.49,1.52,3.58,2.44,5.87,2.44h192.89c2.3,0,4.4-.92,5.87-2.41,1.52-1.52,2.44-3.61,2.44-5.92v-237.15c0-7.41-3.04-14.15-7.93-19.04-4.89-4.89-11.65-7.93-19.04-7.93s-14.17,3.04-19.06,7.93c-4.89,4.89-7.93,11.65-7.93,19.04v35.26c0,1.08-.23,2.2-.68,3.27-1.8,4.19-6.66,6.13-10.87,4.34l.02.02Z"/></svg>