<?xml version="1.0" encoding="UTF-8"?><svg id="Camada_1" xmlns="http://www.w3.org/2000/svg" viewBox="0 0 500 500"><defs><style>.cls-1{fill:#fff;}</style></defs><g id="Grupo_650"><g id="Grupo_640"><g id="Grupo_639"><path id="Caminho_4047" class="cls-1" d="M243.15,82.12l-151.23,113.41c-2.82,2.18-4.48,5.54-4.49,9.1v204.16c.23,6.17,5.18,11.11,11.34,11.34h102.08c6.17-.23,11.11-5.18,11.34-11.34v-117.2h75.61v117.2c.23,6.17,5.18,11.11,11.34,11.34h102.08c6.17-.23,11.11-5.18,11.34-11.34v-204.16c-.02-3.56-1.67-6.92-4.49-9.1l-151.23-113.41c-4.07-3-9.63-3-13.7,0M250,105.39l139.89,104.91v187.15h-79.39v-117.2c0-5.94-5.37-18.9-11.34-18.9h-98.3c-5.94,0-11.34,12.96-11.34,18.9v117.2h-79.39v-187.14l139.88-104.92Z"/></g></g></g></svg>