<?xml version="1.0" encoding="UTF-8"?><svg id="Camada_1" xmlns="http://www.w3.org/2000/svg" viewBox="0 0 500 500"><defs><style>.cls-1{fill:#fff;}</style></defs><g id="Grupo_584"><g id="Grupo_284"><g id="Grupo_283"><path id="Caminho_1972" class="cls-1" d="M49.96,97.32c-17.41.09-31.5,14.18-31.59,31.59v242.15c.07,17.42,14.17,31.53,31.59,31.62h400.07c17.41-.09,31.5-14.18,31.59-31.59v-242.18c-.09-17.41-14.18-31.5-31.59-31.59H49.96ZM49.96,118.36h400.07c5.68-.14,10.39,4.35,10.53,10.03,0,.17,0,.34,0,.5v195.95c-15.53-10.78-29.22-20.55-41.46-27.81-14.28-9.48-30.91-14.83-48.04-15.46-24.77,0-52.19,11.38-88.51,34.38-20.71-18.51-42.57-35.71-65.43-51.49-16.51-12-36.2-18.86-56.59-19.74-34.09,0-67.25,21.34-121.07,62.84v-178.65c-.15-5.68,4.33-10.4,10-10.55.16,0,.33,0,.49,0M360.54,160.49c-26.17,0-47.38,21.21-47.38,47.38s21.21,47.38,47.38,47.38,47.38-21.21,47.38-47.38c-.08-26.13-21.24-47.3-47.38-47.38M360.54,181.52c14.54,0,26.32,11.78,26.32,26.32s-11.78,26.32-26.32,26.32c-14.54,0-26.32-11.78-26.32-26.32-.09-14.45,11.56-26.23,26.01-26.32.1,0,.21,0,.31,0M160.51,265.77c13.76,0,27.26,4.87,45.24,16.45,24.07,16.83,47.09,35.12,68.91,54.78,3.57,3.08,8.74,3.41,12.67.83,38.59-25.22,64.21-35.21,83.73-35.21,13.32.58,26.2,4.9,37.18,12.46,13.81,8.19,30.57,20.53,52.31,35.2v20.73c.14,5.68-4.35,10.39-10.03,10.53-.17,0-.34,0-.5,0H49.96c-5.68.15-10.4-4.33-10.55-10,0-.16,0-.32,0-.48v-37.02c61.25-47.79,94.25-68.28,121.07-68.27"/></g></g></g></svg>