<?xml version="1.0" encoding="UTF-8"?><svg id="Camada_1" xmlns="http://www.w3.org/2000/svg" viewBox="0 0 500 500"><defs><style>.cls-1{fill:#fff;}</style></defs><g id="Grupo_259"><g id="Grupo_258"><path id="Caminho_1819" class="cls-1" d="M249.98,86.48c-90.31,0-163.51,73.23-163.5,163.53,0,90.31,73.23,163.51,163.53,163.5,90.3,0,163.5-73.22,163.5-163.52.04-90.26-73.09-163.47-163.35-163.52-.06,0-.12,0-.18,0M249.69,174.63c12.24,0,22.15,9.92,22.15,22.15s-9.92,22.15-22.15,22.15-22.15-9.92-22.15-22.15c.03-12.22,9.93-22.13,22.15-22.15M268.43,343.93h-18.44c-8.2-.03-14.84-6.67-14.86-14.86v-60.03h-4.15c-8.21,0-14.86-6.65-14.86-14.86s6.65-14.86,14.86-14.86h19.03c8.2.03,14.84,6.67,14.86,14.86v60.05h3.56c8.21,0,14.86,6.65,14.86,14.86s-6.65,14.86-14.86,14.86"/></g></g></svg>