<?xml version="1.0" encoding="UTF-8"?><svg id="Camada_1" xmlns="http://www.w3.org/2000/svg" viewBox="0 0 500 500"><defs><style>.cls-1,.cls-2{fill:#fff;}.cls-2{fill-rule:evenodd;}</style></defs><g id="Grupo_625"><g id="Grupo_623"><g id="Grupo_622"><path id="Caminho_3994" class="cls-2" d="M250,216.98c-6.84,0-12.38,5.54-12.38,12.38v103.15c0,6.84,5.54,12.38,12.38,12.38s12.38-5.54,12.38-12.38v-103.15c0-6.84-5.54-12.38-12.38-12.38h0"/><path id="Caminho_3995" class="cls-2" d="M250,76.71c-95.7,0-173.29,77.57-173.29,173.28,0,95.7,77.57,173.29,173.28,173.29,95.7,0,173.29-77.57,173.29-173.28h0c0-95.71-77.58-173.29-173.28-173.29M51.96,249.99c0-109.37,88.67-198.04,198.05-198.03,109.37,0,198.04,88.67,198.03,198.05,0,109.37-88.67,198.03-198.04,198.03S51.96,359.37,51.96,250c0,0,0,0,0,0"/><path id="Caminho_3996" class="cls-1" d="M270.64,167.48c0,11.39-9.24,20.63-20.63,20.63-11.39,0-20.63-9.24-20.63-20.63s9.24-20.63,20.63-20.63,20.63,9.24,20.63,20.63h0"/></g></g></g></svg>