<?xml version="1.0" encoding="UTF-8"?><svg id="Camada_1" xmlns="http://www.w3.org/2000/svg" viewBox="0 0 500 500"><defs><style>.cls-1{fill:#fff;}</style></defs><path class="cls-1" d="M278.2,171.7c-15.45,11.81-24.27,11.22-32.63-.23-9.78-13.39-27.86-18.71-43.47-12.62-5.51,2.15-10.85,4.74-19.28,8.46,7.38,1.11,11.83,2.27,16.3,2.38,22.44.51,34.71,15.27,44.96,32.32,12.12,20.15,1.04,39.12-4.52,58.05-1.59,5.42-6.47,9.91-9.97,14.73-9.25,12.7-19.99,20.61-37.54,19.42-17.25-1.17-34.77,1.71-52.18,2.67-4.43.24-9.85,1.57-13.18-.39-26.85-15.75-54.48-12.38-83.24-3.58-13.43-29.54-10.37-58.55-1.21-87.53.8-2.54,4.78-5.34,7.62-5.76,23.19-3.43,35.9-19.58,47.39-37.64,25.57-40.22,60.76-70.38,100.83-95.24,2.41-1.5,9.24-.82,9.75.5,1.41,3.6,2.28,9.66.24,11.95-7.81,8.75-16.84,16.39-21.22,20.5,19.15-1,42.57-2.83,66-2.98,5.33-.03,10.7,5.8,16.05,8.94-5.7,3.92-10.94,9.82-17.21,11.28-9.03,2.1-18.93.11-28.23,1.44-9.51,1.37-18.74,4.64-31.05,7.85,19.69,3.61,37.52,3.11,51.13,10.44,13.48,7.26,22.7,22.42,34.68,35.05ZM229.48,243.4c-2.7-8.17-4.2-18.95-9.52-27.32-8.14-12.8-21.18-15.67-36.74-15.21-13.27.39-19.79,6.77-26.31,15.9-6.2,8.68-2.32,15.41,2.85,22.87,3.56,5.13,5.21,11.59,7.44,16.81,22.28,3.35,44.92,10.31,62.28-13.05Z"/><path class="cls-1" d="M353.07,392.3c-22.24,13.71-45.21,22.57-70.94,22.79-4.23.04-8.49-2.88-12.74-4.43,2.62-4.4,4.23-11.06,8.05-12.76,11.74-5.22,24.65-7.78,36.47-12.86,8.86-3.8,16.75-9.88,24.75-17.13-37.19,17.66-67.29,8.23-92.43-21.59,8.56-13.09,15.23-14.97,27.3-7.24,20.95,13.41,33.63,12.97,54.18-1.92,2.76-2,5.47-4.08,10.94-8.15-10.12.89-17.32,2.94-23.98,1.78-10.35-1.79-21.86-3.53-30.19-9.21-28.53-19.46-33.12-44.84-21.16-77.73,7.87-21.64,19.18-34.94,42.67-37.17,7.28-.69,14.4-3.93,21.39-6.52,17.22-6.38,34.01-9.12,53.21-8.41,20.71.77,41.81-9,65.29-14.79,13.79,22.39,20.79,50.31,19.66,80.24-.11,2.97-4.97,6.62-8.42,8.47-14.76,7.9-24.76,19.24-30.03,35.38-15.65,48.01-41.09,90.25-76.62,126.21-3.05,3.08-7.66,4.62-11.55,6.87-1.1-5.45-4.67-12.03-2.8-16.12,4.23-9.23,11.14-17.22,16.96-25.71ZM272.91,263.17c4.29,7.91,7.96,15.16,12.14,22.11,1.6,2.67,4.34,4.66,6.57,6.95,12.09,12.4,25.97,6.91,39.59,3.93,12.82-2.81,24.78-20.34,19.62-31.95-4.07-9.16-11.67-17.04-18.86-24.34-1.88-1.91-8.11.94-12.28.69-17.43-1.02-32.26,3.1-41.81,19.25-1.09,1.83-3.86,2.66-4.96,3.37Z"/></svg>