<?xml version="1.0" encoding="UTF-8"?><svg id="Camada_1" xmlns="http://www.w3.org/2000/svg" viewBox="0 0 2067.06 2050.72"><defs><style>.cls-1{fill:#56a45c;}.cls-2{fill:#70342d;}.cls-3{fill:#f6a019;}.cls-4{fill:#e42621;}.cls-5{fill:#fff;}.cls-6{fill:#953130;}.cls-7{fill:#805f36;}.cls-8{fill:#958533;}.cls-9{fill:#7089c5;}.cls-10{fill:#b05298;}.cls-11{fill:#83cff0;}.cls-12{fill:#63398d;}</style></defs><g id="Grupo_1046"><g id="Grupo_1042"><g id="Grupo_1036"><rect id="Retângulo_224" class="cls-4" x="399.6" y="509.35" width="291.13" height="398.33"/></g><g id="Grupo_1037"><rect id="Retângulo_225" class="cls-3" x="877.15" y="157.7" width="486.09" height="706.18"/></g><g id="Grupo_1038"><rect id="Retângulo_226" class="cls-9" x="1257.92" y="469.77" width="410.94" height="437.93"/></g><rect id="Retângulo_227" class="cls-7" x="1257.92" y="469.77" width="105.32" height="394.12"/><g id="Grupo_1039"><rect id="Retângulo_228" class="cls-10" x="1544.9" y="319.4" width="323.3" height="382.78"/></g><rect id="Retângulo_229" class="cls-12" x="1544.9" y="469.77" width="123.96" height="232.42"/><g id="Grupo_1040"><rect id="Retângulo_230" class="cls-1" x="250.27" y="695.82" width="230.4" height="275.07"/></g><rect id="Retângulo_231" class="cls-2" x="399.6" y="684.66" width="81.07" height="223.04"/><g id="Grupo_1041"><rect id="Retângulo_232" class="cls-11" x="572.74" y="289.53" width="455.95" height="715.98"/></g><rect id="Retângulo_233" class="cls-6" x="572.74" y="509.35" width="117.98" height="398.33"/><rect id="Retângulo_234" class="cls-8" x="877.15" y="289.53" width="151.54" height="574.35"/></g><g id="Grupo_1045"><g id="Grupo_1043"><path id="Caminho_1511" class="cls-5" d="M588.71,1211.87h95.16l121.02,289.2h-104.19l-15.18-38.56h-100.5l-14.72,38.56h-102.56l120.95-289.2ZM661.72,1394.41l-26.17-69.73-26.26,69.73h52.43Z"/><path id="Caminho_1512" class="cls-5" d="M960.39,1213.94h129.2c76.31,0,128.41,34.05,128.41,102.15v.82c0,69.32-52.92,106.3-130.46,106.3h-31.17v77.94h-96l.02-287.21ZM1082.21,1354.59c24.63,0,41.03-11.07,41.03-31.58v-.82c0-20.92-15.18-31.58-40.61-31.58h-26.26v63.99h25.84Z"/><path id="Caminho_1513" class="cls-5" d="M1382.09,1213.94h129.2c76.29,0,128.39,34.05,128.39,102.15v.82c0,69.32-52.92,106.3-130.46,106.3h-31.17v77.94h-95.98l.02-287.21ZM1503.93,1354.59c24.53,0,41.02-11.07,41.02-31.58v-.82c0-20.92-15.18-31.58-40.61-31.58h-26.26v63.99h25.85Z"/></g><g id="Grupo_1044"><path id="Caminho_1514" class="cls-5" d="M168.05,1771.01v-.65c-1.71-64.29,49.03-117.8,113.32-119.51,1.19-.03,2.38-.04,3.58-.04,33.87-1.03,66.61,12.28,90.16,36.65l-17.84,19.15c-18.85-20.07-45.11-31.53-72.64-31.69-50.05.57-90.17,41.61-89.6,91.66.01,1.07.04,2.13.09,3.2v.67c-2.35,50.32,36.54,93.01,86.86,95.36.88.04,1.76.07,2.65.09,28.49-.03,55.62-12.16,74.64-33.36l17.17,16.85c-23.38,26.44-57.18,41.29-92.47,40.62-63.68.37-115.61-50.96-115.97-114.65,0-1.44,0-2.89.06-4.33Z"/><path id="Caminho_1515" class="cls-5" d="M405.17,1771.01v-.65c-1.71-64.29,49.03-117.8,113.32-119.51,1.19-.03,2.38-.04,3.58-.04,33.87-1.03,66.61,12.28,90.16,36.65l-17.83,19.15c-18.85-20.08-45.12-31.53-72.66-31.69-50.05.57-90.17,41.61-89.6,91.66.01,1.07.04,2.13.09,3.2v.67c-2.34,50.33,36.56,93.02,86.89,95.36.87.04,1.74.07,2.62.08,28.49-.03,55.62-12.16,74.64-33.36l17.17,16.85c-23.38,26.44-57.18,41.29-92.47,40.62-63.68.37-115.61-50.96-115.97-114.65,0-1.44,0-2.89.06-4.33Z"/><path id="Caminho_1516" class="cls-5" d="M659.13,1654.77h26.41l84.21,126.15,84.22-126.15h26.41v231.18h-26.08v-187.24l-84.21,123.85h-1.33l-84.21-123.51v186.91h-25.43v-231.2Z"/><path id="Caminho_1517" class="cls-5" d="M1105.96,1678.89h-77.6v-24.12h181.63v24.12h-77.6v207.06h-26.43v-207.06Z"/><path id="Caminho_1518" class="cls-5" d="M1200.08,1848.3l18.82-16.17c9.98,20.08,30.4,32.84,52.82,33.02,26.17,0,45.25-18.82,45.25-55.47v-154.89h26.41v154.54c1.37,22.27-6.24,44.16-21.13,60.77-13.73,12.89-32.04,19.78-50.86,19.15-29.56.74-57.06-15.05-71.32-40.95Z"/><path id="Caminho_1519" class="cls-5" d="M1518.85,1622.4h23.45l-153.24,305.82h-23.45l153.24-305.82Z"/><path id="Caminho_1520" class="cls-5" d="M1618.85,1653.11h24.43l105.35,232.83h-28.08l-27.08-61.1h-125.75l-27.41,61.1h-26.74l105.27-232.83ZM1683.25,1801.07l-52.51-117.57-52.82,117.57h105.34Z"/><path id="Caminho_1521" class="cls-5" d="M1794.22,1654.77h26.08v207.07h130.13v24.11h-156.2l-.02-231.18Z"/></g></g></g></svg>