<?xml version="1.0" encoding="UTF-8"?><svg id="Camada_1" xmlns="http://www.w3.org/2000/svg" xmlns:xlink="http://www.w3.org/1999/xlink" viewBox="0 0 500 500"><defs><style>.cls-1{clip-path:url(#clippath);}.cls-1,.cls-2{fill:#1c2544;}.cls-3{fill:#fff;}.cls-4{clip-path:url(#clippath-1);}.cls-5{fill:#202020;}.cls-6{fill:#a76a47;}.cls-7{fill:#7d5741;}.cls-8{clip-path:url(#clippath-2);}.cls-9{fill:#454444;}</style><clipPath id="clippath"><polygon class="cls-2" points="192.31 92.22 192.57 92.22 192.31 92.48 192.31 92.22"/></clipPath><clipPath id="clippath-1"><polygon class="cls-1" points="191.78 91.69 191.52 91.69 191.78 91.43 191.78 91.69"/></clipPath><clipPath id="clippath-2"><path class="cls-2" d="M285.83,96.97v3.7h3.7v-3.7h-3.7ZM282.14,96.97v3.7h3.7v-3.7h-3.7ZM278.44,96.97v3.7h3.7v-3.7h-3.7ZM274.74,96.97v11.1h3.7v-11.1h-3.7ZM263.64,96.97v3.7h3.7v-3.7h-3.7ZM256.24,96.97v18.49h3.7v-18.49h-3.7ZM252.55,96.97v3.7h3.7v-3.7h-3.7ZM230.35,96.97v3.7h3.7v-3.7h-3.7ZM210.01,96.97c-7.15,0-12.94,5.81-12.93,12.96h0c0,7.15,5.81,12.94,12.96,12.93h0c7.15,0,12.94-5.81,12.93-12.96h0c0-7.14-5.79-12.93-12.93-12.93h-.03ZM209.98,119.17c-5.11,0-9.24-4.15-9.23-9.26h0c0-5.1,4.14-9.23,9.23-9.23h.03c5.11,0,9.24,4.15,9.23,9.26h0c0,5.1-4.15,9.23-9.25,9.23h-.01ZM306.16,96.99c-7.15,0-12.94,5.81-12.93,12.96h0c0,7.15,5.81,12.94,12.96,12.93h0c7.14,0,12.93-5.79,12.93-12.93h0v-.03c0-7.15-5.8-12.93-12.95-12.93h-.01ZM306.16,119.15c-5.11,0-9.24-4.15-9.23-9.26h0c0-5.11,4.15-9.24,9.26-9.23h0c5.1,0,9.23,4.14,9.23,9.23h0v.03c0,5.1-4.15,9.23-9.25,9.23h-.01ZM259.94,100.67v7.4h3.7v-7.4h-3.7ZM248.85,100.67v3.7h3.7v-3.7h-3.7ZM241.45,100.67v3.7h3.7v-3.7h-3.7ZM237.75,100.67v3.7h3.7v-3.7h-3.7ZM234.05,100.67v3.7h3.7v-3.7h-3.7ZM226.65,100.67v25.89h3.7v-25.89h-3.7ZM300.63,109.92c0,3.06,2.48,5.55,5.55,5.55h0c3.06,0,5.55-2.48,5.55-5.55h0c0-3.06-2.48-5.55-5.55-5.55h0c-3.06,0-5.55,2.48-5.55,5.55ZM282.14,104.37v3.7h3.7v-3.7h-3.7ZM271.04,104.37v7.4h3.7v-7.4h-3.7ZM230.35,104.37v3.7h3.7v-3.7h-3.7ZM204.46,109.92c0,3.06,2.48,5.55,5.55,5.55h0c3.06,0,5.55-2.48,5.55-5.55h0c0-3.06-2.48-5.55-5.55-5.55h0c-3.06,0-5.55,2.48-5.55,5.55ZM285.83,108.07v7.4h3.7v-7.4h-3.7ZM248.85,108.07v3.7h3.7v-3.7h-3.7ZM241.45,108.07v14.8h3.7v-14.8h-3.7ZM237.75,108.07v7.4h3.7v-7.4h-3.7ZM282.14,111.77v7.4h3.7v-7.4h-3.7ZM274.74,111.77v3.7h3.7v-3.7h-3.7ZM263.64,111.77v3.7h3.7v-3.7h-3.7ZM259.94,111.77v7.4h3.7v-7.4h-3.7ZM230.35,111.77v3.7h3.7v-3.7h-3.7ZM278.44,115.47v11.1h3.7v-11.1h-3.7ZM271.04,115.47v14.8h3.7v-14.8h-3.7ZM245.15,115.47v3.7h3.7v-3.7h-3.7ZM285.83,119.17v3.7h3.7v-3.7h-3.7ZM263.64,119.17v18.49h3.7v-18.49h-3.7ZM256.24,119.17v3.7h3.7v-3.7h-3.7ZM248.85,119.17v22.19h3.7v-22.19h-3.7ZM234.05,119.17v3.7h3.7v-3.7h-3.7ZM282.14,122.87v11.1h3.7v-11.1h-3.7ZM274.74,122.87v3.7h3.7v-3.7h-3.7ZM267.34,122.87v14.8h3.7v-14.8h-3.7ZM245.15,122.87v3.7h3.7v-3.7h-3.7ZM311.73,126.56v3.7h3.7v-3.7h-3.7ZM308.03,126.56v3.7h3.7v-3.7h-3.7ZM304.33,126.56v3.7h3.7v-3.7h-3.7ZM300.63,126.56v3.7h3.7v-3.7h-3.7ZM296.93,126.56v7.4h3.7v-7.4h-3.7ZM293.23,126.56v7.4h3.7v-7.4h-3.7ZM289.53,126.56v3.7h3.7v-3.7h-3.7ZM285.83,126.56v14.8h3.7v-14.8h-3.7ZM256.24,126.56v3.7h3.7v-3.7h-3.7ZM252.55,126.56v3.7h3.7v-3.7h-3.7ZM230.35,126.56v7.4h3.7v-7.4h-3.7ZM219.26,126.56v3.7h3.7v-3.7h-3.7ZM215.56,126.56v7.4h3.7v-7.4h-3.7ZM211.86,126.56v3.7h3.7v-3.7h-3.7ZM197.06,126.56v3.7h3.7v-3.7h-3.7ZM315.42,130.26v3.7h3.7v-3.7h-3.7ZM245.15,130.26v3.7h3.7v-3.7h-3.7ZM234.05,130.26v3.7h3.7v-3.7h-3.7ZM222.96,130.26v14.8h3.7v-14.8h-3.7ZM208.16,130.26v3.7h3.7v-3.7h-3.7ZM204.46,130.26v3.7h3.7v-3.7h-3.7ZM200.76,130.26v3.7h3.7v-3.7h-3.7ZM289.53,133.96v22.19h3.7v-22.19h-3.7ZM278.44,133.96v7.4h3.7v-7.4h-3.7ZM271.04,133.96v3.7h3.7v-3.7h-3.7ZM259.94,133.96v3.7h3.7v-3.7h-3.7ZM241.45,133.96v3.7h3.7v-3.7h-3.7ZM237.75,133.96v3.7h3.7v-3.7h-3.7ZM219.26,133.96v3.7h3.7v-3.7h-3.7ZM211.86,133.96v3.7h3.7v-3.7h-3.7ZM197.06,133.96v7.4h3.7v-7.4h-3.7ZM315.42,137.66v3.7h3.7v-3.7h-3.7ZM311.73,137.66v7.4h3.7v-7.4h-3.7ZM308.03,137.66v7.4h3.7v-7.4h-3.7ZM304.33,137.66v3.7h3.7v-3.7h-3.7ZM300.63,137.66v7.4h3.7v-7.4h-3.7ZM296.93,137.66v3.7h3.7v-3.7h-3.7ZM293.23,137.66v7.4h3.7v-7.4h-3.7ZM282.14,137.66v3.7h3.7v-3.7h-3.7ZM256.24,137.66v3.7h3.7v-3.7h-3.7ZM252.55,137.66v14.8h3.7v-14.8h-3.7ZM245.15,137.66v11.1h3.7v-11.1h-3.7ZM234.05,137.66v14.8h3.7v-14.8h-3.7ZM230.35,137.66v3.7h3.7v-3.7h-3.7ZM226.65,137.66v14.8h3.7v-14.8h-3.7ZM208.16,137.66v22.19h3.7v-22.19h-3.7ZM263.64,141.36v3.7h3.7v-3.7h-3.7ZM259.94,141.36v7.4h3.7v-7.4h-3.7ZM241.45,141.36v3.7h3.7v-3.7h-3.7ZM237.75,141.36v3.7h3.7v-3.7h-3.7ZM219.26,141.36v3.7h3.7v-3.7h-3.7ZM200.76,141.36v3.7h3.7v-3.7h-3.7ZM315.42,145.06v3.7h3.7v-3.7h-3.7ZM296.93,145.06v3.7h3.7v-3.7h-3.7ZM267.34,145.06v7.4h3.7v-7.4h-3.7ZM211.86,145.06v3.7h3.7v-3.7h-3.7ZM197.06,145.06v3.7h3.7v-3.7h-3.7ZM311.73,148.76v3.7h3.7v-3.7h-3.7ZM300.63,148.76v3.7h3.7v-3.7h-3.7ZM282.14,148.76v7.4h3.7v-7.4h-3.7ZM278.44,148.76v7.4h3.7v-7.4h-3.7ZM274.74,148.76v3.7h3.7v-3.7h-3.7ZM248.85,148.76v7.4h3.7v-7.4h-3.7ZM241.45,148.76v11.1h3.7v-11.1h-3.7ZM237.75,148.76v3.7h3.7v-3.7h-3.7ZM222.96,148.76v7.4h3.7v-7.4h-3.7ZM219.26,148.76v3.7h3.7v-3.7h-3.7ZM204.46,148.76v3.7h3.7v-3.7h-3.7ZM200.76,148.76v3.7h3.7v-3.7h-3.7ZM304.33,152.46v3.7h3.7v-3.7h-3.7ZM296.93,152.46v11.1h3.7v-11.1h-3.7ZM285.83,152.46v18.49h3.7v-18.49h-3.7ZM271.04,152.46v18.49h3.7v-18.49h-3.7ZM259.94,152.46v3.7h3.7v-3.7h-3.7ZM245.15,152.46v3.7h3.7v-3.7h-3.7ZM230.35,152.46v3.7h3.7v-3.7h-3.7ZM215.56,152.46v7.4h3.7v-7.4h-3.7ZM197.06,152.46v3.7h3.7v-3.7h-3.7ZM293.23,156.15v3.7h3.7v-3.7h-3.7ZM274.74,156.15v3.7h3.7v-3.7h-3.7ZM267.34,156.15v3.7h3.7v-3.7h-3.7ZM263.64,156.15v3.7h3.7v-3.7h-3.7ZM226.65,156.15v7.4h3.7v-7.4h-3.7ZM219.26,156.15v3.7h3.7v-3.7h-3.7ZM211.86,156.15v3.7h3.7v-3.7h-3.7ZM204.46,156.15v3.7h3.7v-3.7h-3.7ZM200.76,156.15v3.7h3.7v-3.7h-3.7ZM304.33,159.85v3.7h3.7v-3.7h-3.7ZM300.63,159.85v3.7h3.7v-3.7h-3.7ZM282.14,159.85v18.49h3.7v-18.49h-3.7ZM278.44,159.85v3.7h3.7v-3.7h-3.7ZM259.94,159.85v40.69h3.7v-40.69h-3.7ZM248.85,159.85v3.7h3.7v-3.7h-3.7ZM237.75,159.85v11.1h3.7v-11.1h-3.7ZM234.05,159.85v3.7h3.7v-3.7h-3.7ZM230.35,159.85v14.8h3.7v-14.8h-3.7ZM315.42,163.55v3.7h3.7v-3.7h-3.7ZM311.73,163.55v3.7h3.7v-3.7h-3.7ZM308.03,163.55v3.7h3.7v-3.7h-3.7ZM267.34,163.55v3.7h3.7v-3.7h-3.7ZM245.15,163.55v3.7h3.7v-3.7h-3.7ZM219.26,163.55v3.7h3.7v-3.7h-3.7ZM208.16,163.55v3.7h3.7v-3.7h-3.7ZM200.76,163.55v3.7h3.7v-3.7h-3.7ZM296.93,167.25v7.4h3.7v-7.4h-3.7ZM289.53,167.25v7.4h3.7v-7.4h-3.7ZM278.44,167.25v3.7h3.7v-3.7h-3.7ZM226.65,167.25v7.4h3.7v-7.4h-3.7ZM222.96,167.25v11.1h3.7v-11.1h-3.7ZM215.56,167.25v3.7h3.7v-3.7h-3.7ZM197.06,167.25v18.49h3.7v-18.49h-3.7ZM315.42,170.95v3.7h3.7v-3.7h-3.7ZM308.03,170.95v3.7h3.7v-3.7h-3.7ZM300.63,170.95v11.1h3.7v-11.1h-3.7ZM274.74,170.95v14.8h3.7v-14.8h-3.7ZM263.64,170.95v7.4h3.7v-7.4h-3.7ZM256.24,170.95v3.7h3.7v-3.7h-3.7ZM248.85,170.95v11.1h3.7v-11.1h-3.7ZM241.45,170.95v18.49h3.7v-18.49h-3.7ZM219.26,170.95v3.7h3.7v-3.7h-3.7ZM211.86,170.95v3.7h3.7v-3.7h-3.7ZM204.46,170.95v14.8h3.7v-14.8h-3.7ZM311.73,174.65v11.1h3.7v-11.1h-3.7ZM271.04,174.65v3.7h3.7v-3.7h-3.7ZM267.34,174.65v11.1h3.7v-11.1h-3.7ZM252.55,174.65v7.4h3.7v-7.4h-3.7ZM245.15,174.65v3.7h3.7v-3.7h-3.7ZM208.16,174.65v3.7h3.7v-3.7h-3.7ZM200.76,174.65v3.7h3.7v-3.7h-3.7ZM315.42,178.35v11.1h3.7v-11.1h-3.7ZM308.03,178.35v22.19h3.7v-22.19h-3.7ZM293.23,178.35v11.1h3.7v-11.1h-3.7ZM285.83,178.35v3.7h3.7v-3.7h-3.7ZM256.24,178.35v3.7h3.7v-3.7h-3.7ZM234.05,178.35v3.7h3.7v-3.7h-3.7ZM226.65,178.35v3.7h3.7v-3.7h-3.7ZM219.26,178.35v3.7h3.7v-3.7h-3.7ZM304.33,182.05v3.7h3.7v-3.7h-3.7ZM296.93,182.05v7.4h3.7v-7.4h-3.7ZM289.53,182.05v7.4h3.7v-7.4h-3.7ZM282.14,182.05v14.8h3.7v-14.8h-3.7ZM245.15,182.05v3.7h3.7v-3.7h-3.7ZM237.75,182.05v3.7h3.7v-3.7h-3.7ZM230.35,182.05v3.7h3.7v-3.7h-3.7ZM222.96,182.05v7.4h3.7v-7.4h-3.7ZM211.86,182.05v3.7h3.7v-3.7h-3.7ZM208.16,182.05v7.4h3.7v-7.4h-3.7ZM300.63,185.74v22.19h3.7v-22.19h-3.7ZM285.83,185.74v18.49h3.7v-18.49h-3.7ZM278.44,185.74v7.4h3.7v-7.4h-3.7ZM271.04,185.74v7.4h3.7v-7.4h-3.7ZM256.24,185.74v7.4h3.7v-7.4h-3.7ZM252.55,185.74v14.8h3.7v-14.8h-3.7ZM234.05,185.74v7.4h3.7v-7.4h-3.7ZM226.65,185.74v3.7h3.7v-3.7h-3.7ZM219.26,185.74v3.7h3.7v-3.7h-3.7ZM200.76,185.74v3.7h3.7v-3.7h-3.7ZM304.33,189.44v3.7h3.7v-3.7h-3.7ZM274.74,189.44v11.1h3.7v-11.1h-3.7ZM248.85,189.44v7.4h3.7v-7.4h-3.7ZM245.15,189.44v11.1h3.7v-11.1h-3.7ZM210,193.13c-7.14,0-12.93,5.79-12.93,12.93h0v.03c0,7.15,5.81,12.94,12.96,12.93h0c7.15,0,12.94-5.81,12.93-12.96h0c0-7.15-5.8-12.93-12.95-12.93h0s0,0-.01,0ZM210,215.35c-5.1,0-9.23-4.14-9.23-9.23h0v-.03c0-5.11,4.15-9.24,9.26-9.23h0c5.11,0,9.24,4.15,9.23,9.26h0c0,5.1-4.15,9.23-9.25,9.23h-.01ZM293.23,193.14v3.7h3.7v-3.7h-3.7ZM237.75,193.14v3.7h3.7v-3.7h-3.7ZM230.35,193.14v7.4h3.7v-7.4h-3.7ZM315.42,196.84v3.7h3.7v-3.7h-3.7ZM267.34,196.84v14.8h3.7v-14.8h-3.7ZM263.64,196.84v7.4h3.7v-7.4h-3.7ZM256.24,196.84v7.4h3.7v-7.4h-3.7ZM226.65,196.84v7.4h3.7v-7.4h-3.7ZM311.73,200.54v3.7h3.7v-3.7h-3.7ZM304.33,200.54v7.4h3.7v-7.4h-3.7ZM296.93,200.54v14.79h3.7v-14.79h-3.7ZM293.23,200.54v3.7h3.7v-3.7h-3.7ZM289.53,200.54v3.7h3.7v-3.7h-3.7ZM282.14,200.54v14.79h3.7v-14.79h-3.7ZM278.44,200.54v7.4h3.7v-7.4h-3.7ZM271.04,200.54v7.4h3.7v-7.4h-3.7ZM248.85,200.54v7.4h3.7v-7.4h-3.7ZM241.45,200.54v7.4h3.7v-7.4h-3.7ZM237.75,200.54v11.1h3.7v-11.1h-3.7ZM234.05,200.54v3.7h3.7v-3.7h-3.7ZM204.46,206.09c0,3.06,2.48,5.55,5.55,5.55h0c3.06,0,5.55-2.48,5.55-5.55h0c0-3.06-2.48-5.55-5.55-5.55h0c-3.06,0-5.55,2.48-5.55,5.55ZM308.03,204.24v7.4h3.7v-7.4h-3.7ZM274.74,204.24v3.7h3.7v-3.7h-3.7ZM259.94,204.24v7.4h3.7v-7.4h-3.7ZM252.55,204.24v7.4h3.7v-7.4h-3.7ZM230.35,204.24v7.4h3.7v-7.4h-3.7ZM311.73,207.94v3.7h3.7v-3.7h-3.7ZM293.23,207.94v7.4h3.7v-7.4h-3.7ZM289.53,207.94v3.7h3.7v-3.7h-3.7ZM263.64,207.94v3.7h3.7v-3.7h-3.7ZM245.15,207.94v11.1h3.7v-11.1h-3.7ZM234.05,207.94v7.4h3.7v-7.4h-3.7ZM315.42,211.64v3.7h3.7v-3.7h-3.7ZM285.83,211.64v3.7h3.7v-3.7h-3.7ZM278.44,211.64v3.7h3.7v-3.7h-3.7ZM271.04,211.64v7.4h3.7v-7.4h-3.7ZM248.85,211.64v3.7h3.7v-3.7h-3.7ZM241.45,211.64v7.4h3.7v-7.4h-3.7ZM304.33,215.33v3.7h3.7v-3.7h-3.7ZM289.53,215.33v3.7h3.7v-3.7h-3.7ZM274.74,215.33v3.7h3.7v-3.7h-3.7ZM259.94,215.33v3.7h3.7v-3.7h-3.7ZM256.24,215.33v3.7h3.7v-3.7h-3.7ZM237.75,215.33v3.7h3.7v-3.7h-3.7ZM230.35,215.33v3.7h3.7v-3.7h-3.7ZM226.65,215.33v3.7h3.7v-3.7h-3.7Z"/></clipPath></defs><g id="Grupo_852"><path id="Caminho_5290" class="cls-7" d="M369.12,194.26c-8.25,10.92-23.76,13.13-34.72,4.94l-41.78-31.38c-11.03-8.13-13.38-23.66-5.25-34.69,8.13-11.03,23.66-13.38,34.69-5.26.12.09.25.18.37.28h0l41.78,31.37c10.92,8.25,13.13,23.77,4.93,34.73"/><path id="Caminho_5291" class="cls-7" d="M369.12,258.14c-8.25,10.92-23.76,13.13-34.72,4.94l-41.77-31.38c-10.84-8.37-12.85-23.94-4.49-34.78,8.21-10.64,23.4-12.8,34.25-4.88l41.78,31.37c10.92,8.25,13.13,23.77,4.93,34.73"/><path id="Caminho_5292" class="cls-7" d="M369.12,322.02c-8.25,10.92-23.76,13.12-34.72,4.93l-41.77-31.38c-10.95-8.23-13.16-23.78-4.93-34.73s23.78-13.16,34.73-4.93l41.77,31.37c10.91,8.25,13.12,23.77,4.94,34.73"/><path id="Caminho_1525" class="cls-6" d="M150.91,483.88h103.3l.76-84.31c43.78,0,70.81-38.73,70.81-67.45v-28.52h-195.32l-3.54,182.32c7.93-1.34,15.95-2.02,23.99-2.05Z"/><path id="Caminho_5294" class="cls-7" d="M244.4,379.9c-34.32,36.27-107.84,22.55-107.84,22.55l51.76-77.05h136.47v8.27c0,15-7.39,32.73-20.68,46.25l-59.7-.02Z"/><path id="Caminho_5295" class="cls-5" d="M324.85,18.07h-134.59c-12.79.04-23.16,10.4-23.2,23.2v286.15c.03,12.8,10.39,23.17,23.19,23.21h134.6c12.79-.04,23.15-10.41,23.16-23.21V41.27c-.03-12.79-10.38-23.15-23.16-23.2"/><rect id="Retângulo_586" class="cls-3" x="182.99" y="69.67" width="149.07" height="229.34"/><path id="Caminho_5296" class="cls-9" d="M263.37,43.21c0,3.22-2.62,5.83-5.84,5.82-3.22,0-5.83-2.62-5.82-5.84,0-3.22,2.61-5.82,5.83-5.82,3.22,0,5.83,2.61,5.83,5.82h0"/><path id="Caminho_5297" class="cls-9" d="M243.19,332.81c-3.51,0-6.36-2.86-6.35-6.37v-1.91c0-3.5,2.83-6.35,6.33-6.36h28.69c3.51,0,6.36,2.85,6.36,6.36v1.9c0,3.51-2.85,6.36-6.36,6.37h-28.68Z"/><path id="Caminho_5298" class="cls-6" d="M190.52,264.98h0c0-17.57,14.24-31.81,31.81-31.81h69.94v14.65c0,22.21-18.01,40.22-40.22,40.22h-38.44c-12.75,0-23.09-10.33-23.09-23.09h0"/><path id="Caminho_5299" class="cls-6" d="M167.15,132.31v155.75l33.66-46.67,33.78,11.39v79.37c0,74.65-81.36,67.45-105.13,67.45v-186.23s.88-71.9,37.69-81.05"/></g><polygon class="cls-2" points="192.31 92.22 192.57 92.22 192.31 92.48 192.31 92.22"/><polygon class="cls-2" points="191.78 91.69 191.52 91.69 191.78 91.43 191.78 91.69"/><g class="cls-4"><rect class="cls-2" x="192.04" y="91.95" width="132.1" height="132.1"/></g><path class="cls-2" d="M285.83,96.97v3.7h3.7v-3.7h-3.7ZM282.14,96.97v3.7h3.7v-3.7h-3.7ZM278.44,96.97v3.7h3.7v-3.7h-3.7ZM274.74,96.97v11.1h3.7v-11.1h-3.7ZM263.64,96.97v3.7h3.7v-3.7h-3.7ZM256.24,96.97v18.49h3.7v-18.49h-3.7ZM252.55,96.97v3.7h3.7v-3.7h-3.7ZM230.35,96.97v3.7h3.7v-3.7h-3.7ZM210.01,96.97c-7.15,0-12.94,5.81-12.93,12.96h0c0,7.15,5.81,12.94,12.96,12.93h0c7.15,0,12.94-5.81,12.93-12.96h0c0-7.14-5.79-12.93-12.93-12.93h-.03ZM209.98,119.17c-5.11,0-9.24-4.15-9.23-9.26h0c0-5.1,4.14-9.23,9.23-9.23h.03c5.11,0,9.24,4.15,9.23,9.26h0c0,5.1-4.15,9.23-9.25,9.23h-.01ZM306.16,96.99c-7.15,0-12.94,5.81-12.93,12.96h0c0,7.15,5.81,12.94,12.96,12.93h0c7.14,0,12.93-5.79,12.93-12.93h0v-.03c0-7.15-5.8-12.93-12.95-12.93h-.01ZM306.16,119.15c-5.11,0-9.24-4.15-9.23-9.26h0c0-5.11,4.15-9.24,9.26-9.23h0c5.1,0,9.23,4.14,9.23,9.23h0v.03c0,5.1-4.15,9.23-9.25,9.23h-.01ZM259.94,100.67v7.4h3.7v-7.4h-3.7ZM248.85,100.67v3.7h3.7v-3.7h-3.7ZM241.45,100.67v3.7h3.7v-3.7h-3.7ZM237.75,100.67v3.7h3.7v-3.7h-3.7ZM234.05,100.67v3.7h3.7v-3.7h-3.7ZM226.65,100.67v25.89h3.7v-25.89h-3.7ZM300.63,109.92c0,3.06,2.48,5.55,5.55,5.55h0c3.06,0,5.55-2.48,5.55-5.55h0c0-3.06-2.48-5.55-5.55-5.55h0c-3.06,0-5.55,2.48-5.55,5.55ZM282.14,104.37v3.7h3.7v-3.7h-3.7ZM271.04,104.37v7.4h3.7v-7.4h-3.7ZM230.35,104.37v3.7h3.7v-3.7h-3.7ZM204.46,109.92c0,3.06,2.48,5.55,5.55,5.55h0c3.06,0,5.55-2.48,5.55-5.55h0c0-3.06-2.48-5.55-5.55-5.55h0c-3.06,0-5.55,2.48-5.55,5.55ZM285.83,108.07v7.4h3.7v-7.4h-3.7ZM248.85,108.07v3.7h3.7v-3.7h-3.7ZM241.45,108.07v14.8h3.7v-14.8h-3.7ZM237.75,108.07v7.4h3.7v-7.4h-3.7ZM282.14,111.77v7.4h3.7v-7.4h-3.7ZM274.74,111.77v3.7h3.7v-3.7h-3.7ZM263.64,111.77v3.7h3.7v-3.7h-3.7ZM259.94,111.77v7.4h3.7v-7.4h-3.7ZM230.35,111.77v3.7h3.7v-3.7h-3.7ZM278.44,115.47v11.1h3.7v-11.1h-3.7ZM271.04,115.47v14.8h3.7v-14.8h-3.7ZM245.15,115.47v3.7h3.7v-3.7h-3.7ZM285.83,119.17v3.7h3.7v-3.7h-3.7ZM263.64,119.17v18.49h3.7v-18.49h-3.7ZM256.24,119.17v3.7h3.7v-3.7h-3.7ZM248.85,119.17v22.19h3.7v-22.19h-3.7ZM234.05,119.17v3.7h3.7v-3.7h-3.7ZM282.14,122.87v11.1h3.7v-11.1h-3.7ZM274.74,122.87v3.7h3.7v-3.7h-3.7ZM267.34,122.87v14.8h3.7v-14.8h-3.7ZM245.15,122.87v3.7h3.7v-3.7h-3.7ZM311.73,126.56v3.7h3.7v-3.7h-3.7ZM308.03,126.56v3.7h3.7v-3.7h-3.7ZM304.33,126.56v3.7h3.7v-3.7h-3.7ZM300.63,126.56v3.7h3.7v-3.7h-3.7ZM296.93,126.56v7.4h3.7v-7.4h-3.7ZM293.23,126.56v7.4h3.7v-7.4h-3.7ZM289.53,126.56v3.7h3.7v-3.7h-3.7ZM285.83,126.56v14.8h3.7v-14.8h-3.7ZM256.24,126.56v3.7h3.7v-3.7h-3.7ZM252.55,126.56v3.7h3.7v-3.7h-3.7ZM230.35,126.56v7.4h3.7v-7.4h-3.7ZM219.26,126.56v3.7h3.7v-3.7h-3.7ZM215.56,126.56v7.4h3.7v-7.4h-3.7ZM211.86,126.56v3.7h3.7v-3.7h-3.7ZM197.06,126.56v3.7h3.7v-3.7h-3.7ZM315.42,130.26v3.7h3.7v-3.7h-3.7ZM245.15,130.26v3.7h3.7v-3.7h-3.7ZM234.05,130.26v3.7h3.7v-3.7h-3.7ZM222.96,130.26v14.8h3.7v-14.8h-3.7ZM208.16,130.26v3.7h3.7v-3.7h-3.7ZM204.46,130.26v3.7h3.7v-3.7h-3.7ZM200.76,130.26v3.7h3.7v-3.7h-3.7ZM289.53,133.96v22.19h3.7v-22.19h-3.7ZM278.44,133.96v7.4h3.7v-7.4h-3.7ZM271.04,133.96v3.7h3.7v-3.7h-3.7ZM259.94,133.96v3.7h3.7v-3.7h-3.7ZM241.45,133.96v3.7h3.7v-3.7h-3.7ZM237.75,133.96v3.7h3.7v-3.7h-3.7ZM219.26,133.96v3.7h3.7v-3.7h-3.7ZM211.86,133.96v3.7h3.7v-3.7h-3.7ZM197.06,133.96v7.4h3.7v-7.4h-3.7ZM315.42,137.66v3.7h3.7v-3.7h-3.7ZM311.73,137.66v7.4h3.7v-7.4h-3.7ZM308.03,137.66v7.4h3.7v-7.4h-3.7ZM304.33,137.66v3.7h3.7v-3.7h-3.7ZM300.63,137.66v7.4h3.7v-7.4h-3.7ZM296.93,137.66v3.7h3.7v-3.7h-3.7ZM293.23,137.66v7.4h3.7v-7.4h-3.7ZM282.14,137.66v3.7h3.7v-3.7h-3.7ZM256.24,137.66v3.7h3.7v-3.7h-3.7ZM252.55,137.66v14.8h3.7v-14.8h-3.7ZM245.15,137.66v11.1h3.7v-11.1h-3.7ZM234.05,137.66v14.8h3.7v-14.8h-3.7ZM230.35,137.66v3.7h3.7v-3.7h-3.7ZM226.65,137.66v14.8h3.7v-14.8h-3.7ZM208.16,137.66v22.19h3.7v-22.19h-3.7ZM263.64,141.36v3.7h3.7v-3.7h-3.7ZM259.94,141.36v7.4h3.7v-7.4h-3.7ZM241.45,141.36v3.7h3.7v-3.7h-3.7ZM237.75,141.36v3.7h3.7v-3.7h-3.7ZM219.26,141.36v3.7h3.7v-3.7h-3.7ZM200.76,141.36v3.7h3.7v-3.7h-3.7ZM315.42,145.06v3.7h3.7v-3.7h-3.7ZM296.93,145.06v3.7h3.7v-3.7h-3.7ZM267.34,145.06v7.4h3.7v-7.4h-3.7ZM211.86,145.06v3.7h3.7v-3.7h-3.7ZM197.06,145.06v3.7h3.7v-3.7h-3.7ZM311.73,148.76v3.7h3.7v-3.7h-3.7ZM300.63,148.76v3.7h3.7v-3.7h-3.7ZM282.14,148.76v7.4h3.7v-7.4h-3.7ZM278.44,148.76v7.4h3.7v-7.4h-3.7ZM274.74,148.76v3.7h3.7v-3.7h-3.7ZM248.85,148.76v7.4h3.7v-7.4h-3.7ZM241.45,148.76v11.1h3.7v-11.1h-3.7ZM237.75,148.76v3.7h3.7v-3.7h-3.7ZM222.96,148.76v7.4h3.7v-7.4h-3.7ZM219.26,148.76v3.7h3.7v-3.7h-3.7ZM204.46,148.76v3.7h3.7v-3.7h-3.7ZM200.76,148.76v3.7h3.7v-3.7h-3.7ZM304.33,152.46v3.7h3.7v-3.7h-3.7ZM296.93,152.46v11.1h3.7v-11.1h-3.7ZM285.83,152.46v18.49h3.7v-18.49h-3.7ZM271.04,152.46v18.49h3.7v-18.49h-3.7ZM259.94,152.46v3.7h3.7v-3.7h-3.7ZM245.15,152.46v3.7h3.7v-3.7h-3.7ZM230.35,152.46v3.7h3.7v-3.7h-3.7ZM215.56,152.46v7.4h3.7v-7.4h-3.7ZM197.06,152.46v3.7h3.7v-3.7h-3.7ZM293.23,156.15v3.7h3.7v-3.7h-3.7ZM274.74,156.15v3.7h3.7v-3.7h-3.7ZM267.34,156.15v3.7h3.7v-3.7h-3.7ZM263.64,156.15v3.7h3.7v-3.7h-3.7ZM226.65,156.15v7.4h3.7v-7.4h-3.7ZM219.26,156.15v3.7h3.7v-3.7h-3.7ZM211.86,156.15v3.7h3.7v-3.7h-3.7ZM204.46,156.15v3.7h3.7v-3.7h-3.7ZM200.76,156.15v3.7h3.7v-3.7h-3.7ZM304.33,159.85v3.7h3.7v-3.7h-3.7ZM300.63,159.85v3.7h3.7v-3.7h-3.7ZM282.14,159.85v18.49h3.7v-18.49h-3.7ZM278.44,159.85v3.7h3.7v-3.7h-3.7ZM259.94,159.85v40.69h3.7v-40.69h-3.7ZM248.85,159.85v3.7h3.7v-3.7h-3.7ZM237.75,159.85v11.1h3.7v-11.1h-3.7ZM234.05,159.85v3.7h3.7v-3.7h-3.7ZM230.35,159.85v14.8h3.7v-14.8h-3.7ZM315.42,163.55v3.7h3.7v-3.7h-3.7ZM311.73,163.55v3.7h3.7v-3.7h-3.7ZM308.03,163.55v3.7h3.7v-3.7h-3.7ZM267.34,163.55v3.7h3.7v-3.7h-3.7ZM245.15,163.55v3.7h3.7v-3.7h-3.7ZM219.26,163.55v3.7h3.7v-3.7h-3.7ZM208.16,163.55v3.7h3.7v-3.7h-3.7ZM200.76,163.55v3.7h3.7v-3.7h-3.7ZM296.93,167.25v7.4h3.7v-7.4h-3.7ZM289.53,167.25v7.4h3.7v-7.4h-3.7ZM278.44,167.25v3.7h3.7v-3.7h-3.7ZM226.65,167.25v7.4h3.7v-7.4h-3.7ZM222.96,167.25v11.1h3.7v-11.1h-3.7ZM215.56,167.25v3.7h3.7v-3.7h-3.7ZM197.06,167.25v18.49h3.7v-18.49h-3.7ZM315.42,170.95v3.7h3.7v-3.7h-3.7ZM308.03,170.95v3.7h3.7v-3.7h-3.7ZM300.63,170.95v11.1h3.7v-11.1h-3.7ZM274.74,170.95v14.8h3.7v-14.8h-3.7ZM263.64,170.95v7.4h3.7v-7.4h-3.7ZM256.24,170.95v3.7h3.7v-3.7h-3.7ZM248.85,170.95v11.1h3.7v-11.1h-3.7ZM241.45,170.95v18.49h3.7v-18.49h-3.7ZM219.26,170.95v3.7h3.7v-3.7h-3.7ZM211.86,170.95v3.7h3.7v-3.7h-3.7ZM204.46,170.95v14.8h3.7v-14.8h-3.7ZM311.73,174.65v11.1h3.7v-11.1h-3.7ZM271.04,174.65v3.7h3.7v-3.7h-3.7ZM267.34,174.65v11.1h3.7v-11.1h-3.7ZM252.55,174.65v7.4h3.7v-7.4h-3.7ZM245.15,174.65v3.7h3.7v-3.7h-3.7ZM208.16,174.65v3.7h3.7v-3.7h-3.7ZM200.76,174.65v3.7h3.7v-3.7h-3.7ZM315.42,178.35v11.1h3.7v-11.1h-3.7ZM308.03,178.35v22.19h3.7v-22.19h-3.7ZM293.23,178.35v11.1h3.7v-11.1h-3.7ZM285.83,178.35v3.7h3.7v-3.7h-3.7ZM256.24,178.35v3.7h3.7v-3.7h-3.7ZM234.05,178.35v3.7h3.7v-3.7h-3.7ZM226.65,178.35v3.7h3.7v-3.7h-3.7ZM219.26,178.35v3.7h3.7v-3.7h-3.7ZM304.33,182.05v3.7h3.7v-3.7h-3.7ZM296.93,182.05v7.4h3.7v-7.4h-3.7ZM289.53,182.05v7.4h3.7v-7.4h-3.7ZM282.14,182.05v14.8h3.7v-14.8h-3.7ZM245.15,182.05v3.7h3.7v-3.7h-3.7ZM237.75,182.05v3.7h3.7v-3.7h-3.7ZM230.35,182.05v3.7h3.7v-3.7h-3.7ZM222.96,182.05v7.4h3.7v-7.4h-3.7ZM211.86,182.05v3.7h3.7v-3.7h-3.7ZM208.16,182.05v7.4h3.7v-7.4h-3.7ZM300.63,185.74v22.19h3.7v-22.19h-3.7ZM285.83,185.74v18.49h3.7v-18.49h-3.7ZM278.44,185.74v7.4h3.7v-7.4h-3.7ZM271.04,185.74v7.4h3.7v-7.4h-3.7ZM256.24,185.74v7.4h3.7v-7.4h-3.7ZM252.55,185.74v14.8h3.7v-14.8h-3.7ZM234.05,185.74v7.4h3.7v-7.4h-3.7ZM226.65,185.74v3.7h3.7v-3.7h-3.7ZM219.26,185.74v3.7h3.7v-3.7h-3.7ZM200.76,185.74v3.7h3.7v-3.7h-3.7ZM304.33,189.44v3.7h3.7v-3.7h-3.7ZM274.74,189.44v11.1h3.7v-11.1h-3.7ZM248.85,189.44v7.4h3.7v-7.4h-3.7ZM245.15,189.44v11.1h3.7v-11.1h-3.7ZM210,193.13c-7.14,0-12.93,5.79-12.93,12.93h0v.03c0,7.15,5.81,12.94,12.96,12.93h0c7.15,0,12.94-5.81,12.93-12.96h0c0-7.15-5.8-12.93-12.95-12.93h0s0,0-.01,0ZM210,215.35c-5.1,0-9.23-4.14-9.23-9.23h0v-.03c0-5.11,4.15-9.24,9.26-9.23h0c5.11,0,9.24,4.15,9.23,9.26h0c0,5.1-4.15,9.23-9.25,9.23h-.01ZM293.23,193.14v3.7h3.7v-3.7h-3.7ZM237.75,193.14v3.7h3.7v-3.7h-3.7ZM230.35,193.14v7.4h3.7v-7.4h-3.7ZM315.42,196.84v3.7h3.7v-3.7h-3.7ZM267.34,196.84v14.8h3.7v-14.8h-3.7ZM263.64,196.84v7.4h3.7v-7.4h-3.7ZM256.24,196.84v7.4h3.7v-7.4h-3.7ZM226.65,196.84v7.4h3.7v-7.4h-3.7ZM311.73,200.54v3.7h3.7v-3.7h-3.7ZM304.33,200.54v7.4h3.7v-7.4h-3.7ZM296.93,200.54v14.79h3.7v-14.79h-3.7ZM293.23,200.54v3.7h3.7v-3.7h-3.7ZM289.53,200.54v3.7h3.7v-3.7h-3.7ZM282.14,200.54v14.79h3.7v-14.79h-3.7ZM278.44,200.54v7.4h3.7v-7.4h-3.7ZM271.04,200.54v7.4h3.7v-7.4h-3.7ZM248.85,200.54v7.4h3.7v-7.4h-3.7ZM241.45,200.54v7.4h3.7v-7.4h-3.7ZM237.75,200.54v11.1h3.7v-11.1h-3.7ZM234.05,200.54v3.7h3.7v-3.7h-3.7ZM204.46,206.09c0,3.06,2.48,5.55,5.55,5.55h0c3.06,0,5.55-2.48,5.55-5.55h0c0-3.06-2.48-5.55-5.55-5.55h0c-3.06,0-5.55,2.48-5.55,5.55ZM308.03,204.24v7.4h3.7v-7.4h-3.7ZM274.74,204.24v3.7h3.7v-3.7h-3.7ZM259.94,204.24v7.4h3.7v-7.4h-3.7ZM252.55,204.24v7.4h3.7v-7.4h-3.7ZM230.35,204.24v7.4h3.7v-7.4h-3.7ZM311.73,207.94v3.7h3.7v-3.7h-3.7ZM293.23,207.94v7.4h3.7v-7.4h-3.7ZM289.53,207.94v3.7h3.7v-3.7h-3.7ZM263.64,207.94v3.7h3.7v-3.7h-3.7ZM245.15,207.94v11.1h3.7v-11.1h-3.7ZM234.05,207.94v7.4h3.7v-7.4h-3.7ZM315.42,211.64v3.7h3.7v-3.7h-3.7ZM285.83,211.64v3.7h3.7v-3.7h-3.7ZM278.44,211.64v3.7h3.7v-3.7h-3.7ZM271.04,211.64v7.4h3.7v-7.4h-3.7ZM248.85,211.64v3.7h3.7v-3.7h-3.7ZM241.45,211.64v7.4h3.7v-7.4h-3.7ZM304.33,215.33v3.7h3.7v-3.7h-3.7ZM289.53,215.33v3.7h3.7v-3.7h-3.7ZM274.74,215.33v3.7h3.7v-3.7h-3.7ZM259.94,215.33v3.7h3.7v-3.7h-3.7ZM256.24,215.33v3.7h3.7v-3.7h-3.7ZM237.75,215.33v3.7h3.7v-3.7h-3.7ZM230.35,215.33v3.7h3.7v-3.7h-3.7ZM226.65,215.33v3.7h3.7v-3.7h-3.7Z"/><g class="cls-8"><rect class="cls-2" x="192.04" y="91.95" width="132.1" height="132.1"/></g></svg>