<?xml version="1.0" encoding="UTF-8"?>
<!DOCTYPE svg PUBLIC "-//W3C//DTD SVG 1.1//EN" "http://www.w3.org/Graphics/SVG/1.1/DTD/svg11.dtd">
<!-- Creator: CorelDRAW 2020 (64 Bit) -->
<svg xmlns="http://www.w3.org/2000/svg" xml:space="preserve" width="282.194mm" height="282.194mm" version="1.1" style="shape-rendering:geometricPrecision; text-rendering:geometricPrecision; image-rendering:optimizeQuality; fill-rule:evenodd; clip-rule:evenodd"
viewBox="0 0 28219.38 28219.38"
 xmlns:xlink="http://www.w3.org/1999/xlink"
 xmlns:xodm="http://www.corel.com/coreldraw/odm/2003">
 <defs>
  <style type="text/css">
   <![CDATA[
    .fil0 {fill:#071F49;fill-rule:nonzero}
   ]]>
  </style>
 </defs>
 <g id="Camada_x0020_1">
  <metadata id="CorelCorpID_0Corel-Layer"/>
  <path class="fil0" d="M4651.15 1849.02c197.9,-98.26 422.1,-70.58 589.56,58.12l18423 11767.64c130.09,107.94 213.13,264.32 213.13,433.17 0,166.07 -84.42,327.99 -213.13,434.57l-18424.39 11766.24c-96.87,78.89 -224.2,120.4 -345.99,120.4l-243.57 -55.35c-188.22,-89.96 -307.23,-286.48 -307.23,-499.6l0.01 -23528.36c0,-210.36 119.01,-408.25 308.61,-496.83z"/>
  <path class="fil0" d="M4345.7 1230.03c216.01,-107.24 448.78,-146.34 675.52,-123.99 212.41,20.92 417.9,97.78 597.31,224.76l18466.1 11795.16 19.67 16.32c139.9,116.08 255.23,261.15 335.84,425.02 82.51,167.68 128.68,351.22 128.68,540.65 0,185.88 -46.84,370.18 -129.53,538.79 -81.67,166.48 -197.09,314.1 -334.99,428.27l-19.9 16.47 -18440.42 11776.5c-103.57,78.77 -218.77,139.36 -338.42,181.01 -137.04,47.68 -277.93,72.15 -412.23,72.15l-68.06 0 -400.3 -90.97 -72.54 -34.67c-219.16,-104.77 -395.66,-267.18 -515.57,-462.2 -119.51,-194.34 -186.31,-422.49 -186.31,-659.09l2.71 0 0.01 -23528.36 -2.71 0c0,-235.1 67.93,-464.66 189.82,-660.91 118.69,-191.11 291.46,-350.91 505.73,-454.08l-0.41 -0.83zm18717.1 12878.6l-18031 -11517.24 -0.01 23032.27 18031.01 -11515.03z"/>
 </g>
</svg>
