<?xml version="1.0" encoding="UTF-8"?><svg id="Camada_1" xmlns="http://www.w3.org/2000/svg" viewBox="0 0 500 500"><defs><style>.cls-1{fill:#fff;}</style></defs><g id="Grupo_773"><g id="Grupo_641"><path id="Caminho_4048" class="cls-1" d="M446.25,440.21l-94.44-94.48c-5.14-5.15-8.03-12.12-8.05-19.39v-44.32c0-.32,0-.64-.05-.96l-15.96-147.71c-1.81-16.89-16.07-29.7-33.06-29.68-5.2,0-10.33,1.24-14.95,3.62v-44.77c0-10.1-8.18-18.29-18.28-18.29,0,0,0,0,0,0H105.97c-10.1,0-18.29,8.19-18.29,18.29h0v59.45h-4.58c-17.66-.01-31.99,14.29-32.01,31.96,0,8.63,3.47,16.89,9.65,22.92-12.63,12.3-12.9,32.51-.6,45.13.2.2.4.4.6.6-12.63,12.3-12.9,32.51-.6,45.13.2.2.4.4.6.6-12.65,12.33-12.9,32.58-.57,45.23,6.03,6.18,14.3,9.66,22.94,9.65h4.58v13.72c0,10.1,8.18,18.29,18.28,18.29h9.92l30.13,30.13c9.98,10.02,23.54,15.63,37.68,15.6,9.28-.02,18.19,3.67,24.74,10.24l41.98,41.92c3.68,3.44,9.45,3.25,12.89-.42,3.28-3.5,3.28-8.95,0-12.46l-14.95-15,94.25-62.83,90.75,90.73c3.56,3.56,9.34,3.56,12.9,0,3.56-3.56,3.56-9.34,0-12.9h0M87.68,304.91h-4.58c-7.58-.17-13.58-6.44-13.42-14.02.16-7.34,6.08-13.26,13.42-13.42h4.58v27.44ZM87.68,259.18h-4.58c-7.58-.17-13.58-6.44-13.42-14.02.16-7.34,6.08-13.26,13.42-13.42h4.58v27.44ZM87.68,213.45h-4.58c-7.58.17-13.85-5.84-14.02-13.42-.17-7.58,5.84-13.85,13.42-14.02.2,0,.4,0,.6,0h4.58v27.44ZM87.68,167.72h-4.58c-7.58-.17-13.58-6.44-13.42-14.02.16-7.34,6.08-13.26,13.42-13.42h4.58v27.44ZM105.97,62.52h155.49v274.38H105.97V62.52ZM235.14,412.03l-13.75-13.81c-9.98-10.02-23.54-15.63-37.68-15.6-9.28.01-18.19-3.68-24.74-10.26l-17.19-17.19h119.68c10.1,0,18.29-8.18,18.29-18.28h0v-199.98c.03-8.26,6.75-14.93,15.01-14.9,7.6.03,13.97,5.75,14.81,13.3l15.92,147.21v43.81c0,3.45.4,6.89,1.19,10.24.92,4.03,2.38,7.92,4.34,11.57l-95.87,63.88ZM210.25,192.85c13.92-14.65,13.32-37.81-1.33-51.73-14.65-13.92-37.81-13.32-51.73,1.33-13.41,14.12-13.41,36.28,0,50.4-17.48,9.66-28.34,28.05-28.35,48.02v18.29c0,5.06,4.11,9.17,9.17,9.17h91.42c5.06,0,9.17-4.11,9.17-9.17h0v-18.29c-.02-19.97-10.87-38.36-28.35-48.02M183.73,149.4c10.1,0,18.29,8.19,18.29,18.29s-8.19,18.29-18.29,18.29-18.29-8.19-18.29-18.29h0c0-10.1,8.18-18.29,18.28-18.29h.01M220.32,250.01h-73.19v-9.17c-.27-20.2,15.89-36.8,36.09-37.07,20.2-.27,36.8,15.89,37.07,36.09,0,.33,0,.65,0,.98l.03,9.17Z"/></g></g></svg>