<?xml version="1.0" encoding="UTF-8"?>
<!DOCTYPE svg PUBLIC "-//W3C//DTD SVG 1.1//EN" "http://www.w3.org/Graphics/SVG/1.1/DTD/svg11.dtd">
<!-- Creator: CorelDRAW 2020 (64 Bit) -->
<svg xmlns="http://www.w3.org/2000/svg" xml:space="preserve" width="145.675mm" height="138.902mm" version="1.1" style="shape-rendering:geometricPrecision; text-rendering:geometricPrecision; image-rendering:optimizeQuality; fill-rule:evenodd; clip-rule:evenodd"
viewBox="0 0 14567.56 13890.25"
 xmlns:xlink="http://www.w3.org/1999/xlink"
 xmlns:xodm="http://www.corel.com/coreldraw/odm/2003">
 <defs>
  <style type="text/css">
   <![CDATA[
    .fil0 {fill:#071F49;fill-rule:nonzero}
   ]]>
  </style>
 </defs>
 <g id="Camada_x0020_1">
  <metadata id="CorelCorpID_0Corel-Layer"/>
  <path id="seta_x0020_em_x0020_selfie.svg" class="fil0" d="M14084.71 5725.86l-5243.28 -5243.28c-643.44,-643.44 -1686.72,-643.44 -2330.58,0 -643.44,643.44 -643.44,1686.72 0,2330.58l0 0 2519.58 2496.48 -7386.97 0c-907.2,0 -1643.04,735 -1643.46,1642.2 0,907.2 735,1643.04 1642.2,1643.46l7353.79 0 -2478.84 2481.78c-643.44,643.44 -643.44,1686.72 0,2330.58 643.44,643.44 1686.72,643.44 2330.58,0l5243.28 -5243.28c322.56,-323.4 494.76,-767.34 475.02,-1223.46l0 -52.5c0.84,-435.96 -172.2,-854.28 -480.48,-1162.14l-0.84 -0.42z"/>
 </g>
</svg>
