<?xml version="1.0" encoding="UTF-8"?><svg id="Camada_1" xmlns="http://www.w3.org/2000/svg" viewBox="0 0 500 500"><defs><style>.cls-1{fill:#fff;}</style></defs><path class="cls-1" d="M411.94,220.97l-124.84-124.84c-15.32-15.32-40.16-15.32-55.49,0-15.32,15.32-15.32,40.16,0,55.49h0l59.99,59.44H115.72c-21.6,0-39.12,17.5-39.13,39.1,0,21.6,17.5,39.12,39.1,39.13h175.09l-59.02,59.09c-15.32,15.32-15.32,40.16,0,55.49,15.32,15.32,40.16,15.32,55.49,0l124.84-124.84c7.68-7.7,11.78-18.27,11.31-29.13v-1.25c.02-10.38-4.1-20.34-11.44-27.67Z"/></svg>