<?xml version="1.0" encoding="UTF-8"?><svg id="Camada_1" xmlns="http://www.w3.org/2000/svg" viewBox="0 0 500 500"><defs><style>.cls-1{fill:#fff;}</style></defs><path class="cls-1" d="M412.68,152.58h-48.21c-2.76,0-5.19-1.65-6.29-4.19l-12.69-29.57c-6.07-14.01-19.75-23.06-34.97-23.06h-76.35c-15.23,0-28.91,9.05-34.86,23.06l-12.69,29.57c-1.1,2.54-3.53,4.19-6.29,4.19h-93.01c-20.96,0-37.95,16.99-37.95,37.95v175.75c0,20.96,16.99,37.95,37.95,37.95h325.36c20.96,0,37.95-16.99,37.95-37.95v-175.75c0-20.96-17.1-37.95-37.95-37.95ZM419.52,366.29c0,3.75-3.09,6.84-6.84,6.84H87.21c-3.75,0-6.84-3.09-6.84-6.84v-59.03h12.25c8.61,0,15.56-6.95,15.56-15.56s-6.95-15.56-15.56-15.56h-12.25v-31.11h43.36c8.61,0,15.56-6.95,15.56-15.56s-6.95-15.56-15.56-15.56h-43.36v-23.39c0-3.75,3.09-6.84,6.84-6.84h93.01c15.23,0,28.91-9.05,34.86-23.06l12.8-29.57c1.1-2.54,3.53-4.19,6.29-4.19h76.35c2.76,0,5.19,1.65,6.29,4.19l12.69,29.57c5.96,14.01,19.64,23.06,34.86,23.06h48.21c3.75,0,6.84,3.09,6.84,6.84v175.75h.11Z"/><path class="cls-1" d="M94.05,136.25h16.66c8.61,0,15.56-6.95,15.56-15.56s-6.95-15.56-15.56-15.56h-16.66c-8.61,0-15.56,6.95-15.56,15.56s7.06,15.56,15.56,15.56Z"/><path class="cls-1" d="M273.56,194.73c-44.13,0-80.1,35.97-80.1,80.1s35.97,80.1,80.1,80.1,80.1-35.97,80.1-80.1-35.86-80.1-80.1-80.1ZM273.56,323.92c-27.03,0-48.99-21.96-48.99-48.99s21.96-48.99,48.99-48.99,48.99,21.96,48.99,48.99-21.96,48.99-48.99,48.99Z"/></svg>