<?xml version="1.0" encoding="UTF-8"?><svg id="Camada_1" xmlns="http://www.w3.org/2000/svg" viewBox="0 0 500 500"><defs><style>.cls-1{fill:#fff;}</style></defs><path class="cls-1" d="M238.72,210.35c-17.12,4.05-31.29,8.07-45.74,10.34-3.62.57-9.32-3.6-12.03-7.15-11.65-15.27-24.74-21.05-40.96-16.28-16.74,4.93-25.11,17.03-26.04,33.86-.75,13.62-.73,27.38.26,40.98,1.19,16.28,9.31,27.86,26.35,31.06,17.89,3.37,30.94-2.7,39.77-18.59,2.85-5.13,4.7-10.81,7.56-17.53,16.87,5.09,33.42,10.09,50.85,15.35-4.8,26.15-16.99,45.64-39.56,58.01-45.75,25.06-112.75,7.18-137.05-38.56-12.8-24.1-13.73-51.26-8.5-78.31,8.23-42.6,31.99-66.26,75.3-72.2,35.42-4.86,69.45-2.1,93.57,29.28,6.41,8.34,10.27,18.63,16.22,29.74Z"/><path class="cls-1" d="M449.35,210.02c-13.96,3.33-22.96,5.44-31.93,7.61-12.96,3.14-23.58,7.86-33.02-10.26-9.81-18.82-43.31-15.01-54.34,4.1-13.87,24.02-12.52,49.23-2.67,74.25,5.61,14.26,17.61,18.4,31.89,17.97,13.73-.41,24.33-5.45,29.56-19.09,2.12-5.53,4.76-10.86,7.75-17.59,17.06,5.11,33.59,10.06,51.55,15.44-3.66,24.42-15.68,42.42-35.13,55.13-30.97,20.24-91.58,16.37-119.85-6.87-30.77-25.29-42.98-80.98-26.85-122.45,23.88-61.38,112.8-80.81,159.83-34.19,9.21,9.13,14.53,22.2,23.22,35.94Z"/></svg>