<?xml version="1.0" encoding="UTF-8"?><svg id="Camada_1" xmlns="http://www.w3.org/2000/svg" viewBox="0 0 500 500"><defs><style>.cls-1{fill:#fff;}</style></defs><g id="Grupo_579"><g id="Grupo_275"><g id="Grupo_274"><path id="Caminho_1960" class="cls-1" d="M120.83,88.55c-47.55.03-86.08,38.57-86.11,86.11v150.69c.02,47.55,38.56,86.08,86.11,86.11h258.32c47.55-.02,86.09-38.56,86.12-86.11v-150.69c-.03-47.55-38.57-86.09-86.12-86.11H120.83ZM120.83,110.08h258.32c35.46-.22,64.38,28.35,64.59,63.81,0,.26,0,.51,0,.77v150.69c.21,35.46-28.37,64.37-63.83,64.58-.26,0-.51,0-.77,0H120.83c-35.46.21-64.38-28.37-64.58-63.83,0-.25,0-.49,0-.74v-150.69c-.21-35.46,28.37-64.37,63.83-64.58.25,0,.51,0,.76,0M200.72,174.66c-5.62.44-9.94,5.13-9.92,10.77v129.17c-.02,5.57,4.2,10.23,9.74,10.76,2.15.23,4.32-.18,6.23-1.18l118.4-64.58c5.25-2.8,7.23-9.32,4.43-14.56-1.01-1.89-2.55-3.43-4.43-4.43l-118.4-64.59c-1.85-1.02-3.95-1.49-6.06-1.34M212.33,203.75l84.91,46.25-84.91,46.42v-92.66Z"/></g></g></g></svg>